<?xml version="1.0" standalone="no"?>
<!DOCTYPE svg PUBLIC "-//W3C//DTD SVG 1.1//EN" "http://www.w3.org/Graphics/SVG/1.1/DTD/svg11.dtd" >
<svg xmlns="http://www.w3.org/2000/svg" xmlns:xlink="http://www.w3.org/1999/xlink" version="1.1">
<metadata></metadata>
<defs>
<font id="unisanslightitalicitalic" horiz-adv-x="1062" >
<font-face units-per-em="2048" ascent="1583" descent="-465" />
<missing-glyph horiz-adv-x="487" />
<glyph unicode="&#xfb01;" horiz-adv-x="923" d="M-45 -307q47 39 68.5 91t29.5 105l176 1260q10 76 41 138.5t77 104.5t108 62q41 12 90 12q20 0 43 -2l-10 -63q-20 2 -39 2q-35 0 -66 -10q-47 -14 -84 -49t-59.5 -85.5t-30.5 -109.5l-23 -141h230l-8 -62h-230l-145 -1057q-10 -80 -48 -142t-87 -101zM606 -2l148 1061 h75l-147 -1061h-76zM764 1393q4 29 28.5 50t53.5 21t47 -22q14 -16 14 -39q0 -35 -28 -60q-25 -23 -54 -22q-29 0 -47 21.5t-14 50.5z" />
<glyph unicode="&#xfb02;" horiz-adv-x="987" d="M-45 -307q47 39 68.5 91t29.5 105l176 1260q10 76 41 138.5t77 104.5t108 62q41 12 90 12q20 0 43 -2l-10 -63q-20 2 -39 2q-35 0 -66 -10q-47 -14 -84 -49t-59.5 -85.5t-30.5 -109.5l-23 -141h230l-8 -62h-230l-145 -1057q-10 -80 -48 -142t-87 -101zM639 219q0 35 6 76 l160 1155h74l-160 -1155q-4 -35 -4 -64q0 -72 27 -116q41 -61 151 -62l-10 -73q-135 4 -199 81q-45 60 -45 158z" />
<glyph horiz-adv-x="0" />
<glyph unicode="&#xd;" horiz-adv-x="681" />
<glyph unicode=" "  horiz-adv-x="487" />
<glyph unicode="&#x09;" horiz-adv-x="487" />
<glyph unicode="&#xa0;" horiz-adv-x="487" />
<glyph unicode="!" horiz-adv-x="403" d="M47 59v11q4 33 30.5 55t59.5 22t51 -22q14 -18 15 -43v-12q-4 -33 -30 -55.5t-58 -22.5q-33 0 -54 22q-14 18 -14 45zM113 268l166 1184h79l-165 -1184h-80z" />
<glyph unicode="&#x22;" horiz-adv-x="546" d="M207 1061l55 389h82q-12 -55 -23.5 -102.5t-21.5 -92.5t-21.5 -92t-23.5 -102h-47zM383 1061l55 391h80l-76 -391h-59z" />
<glyph unicode="#" horiz-adv-x="1499" d="M55 475l25 70h332l159 370h-372l26 72h379l201 463h80l-203 -463h379l201 463h81l-204 -463h331l-30 -72h-336l-158 -370h377q-8 -23 -14 -36t-15 -34h-383q-47 -111 -101 -237.5t-101 -237.5h-78l205 475h-381q-47 -111 -101.5 -237.5t-101.5 -237.5h-78l205 475h-324z M489 545h379l160 370h-379z" />
<glyph unicode="$" horiz-adv-x="1173" d="M33 233l78 31q35 -92 134 -144t224 -63l94 666q-84 18 -162.5 41.5t-135 65.5t-85.5 108q-18 39 -18 92q0 33 8 74q14 86 61.5 150.5t115 110.5t151.5 72.5t170 32.5l28 197h60l-29 -197q158 -4 263.5 -58t146.5 -169l-76 -29q-39 96 -124 133t-220 46l-86 -607 q88 -16 174 -39.5t147.5 -70.5t87.5 -123q15 -37 15 -86q0 -47 -13 -105q-20 -88 -71 -156.5t-122 -116.5t-157 -75.5t-174 -33.5l-29 -207h-59l29 207q-150 10 -267.5 71.5t-158.5 181.5zM242 1038q0 -37 12 -63q20 -51 66.5 -85t112 -55.5t140.5 -37.5l84 596 q-72 -6 -140 -28t-123.5 -57.5t-93.5 -88t-52 -119.5q-6 -33 -6 -62zM528 57q74 6 145.5 27.5t131 60.5t100.5 93.5t58 123.5q10 54 10 95q0 37 -6 63q-18 59 -65.5 95t-120 56.5t-160.5 39.5z" />
<glyph unicode="%" horiz-adv-x="1456" d="M78 -76l1251 1620l62 -43l-1250 -1618zM143 977q0 47 9 102q25 180 117.5 273.5t215.5 93.5q133 0 195 -96q41 -68 41 -179q0 -45 -6 -96q-12 -86 -42 -154.5t-75 -115.5t-100.5 -72.5t-116.5 -25.5q-135 0 -197 96q-41 66 -41 174zM223 975q0 -78 25 -123 q39 -68 143 -68q102 0 163.5 70t82.5 221q8 51 8 94q0 84 -31 129q-43 72 -141 72q-201 0 -242 -291q-8 -57 -8 -104zM764 270q0 47 8 103q27 186 118 276t216 90q131 0 192 -98q43 -70 43 -178q0 -45 -6 -94q-25 -174 -116.5 -270.5t-214.5 -96.5q-137 0 -197 94 q-43 66 -43 174zM844 270q0 -80 24 -123q41 -70 148 -69q100 0 160.5 69.5t83.5 221.5q8 51 8 94q0 84 -31 131q-45 72 -143 72q-104 0 -162 -72t-80 -221q-8 -57 -8 -103z" />
<glyph unicode="&#x26;" horiz-adv-x="1267" d="M55 338q0 29 4 61q10 78 47 138.5t89.5 109.5t118 90t132.5 78l-53 78q-27 39 -46 81t-28 85q-6 27 -6 53q0 16 2 35q10 72 46 128t88.5 96t116 61.5t130.5 21.5q59 0 110.5 -21.5t88.5 -59.5t55 -91q10 -35 11 -74q0 -18 -3 -39q-10 -72 -43.5 -125t-83 -95 t-109.5 -74.5t-122 -63.5l-35 -18l338 -402l148 201l57 -31l-162 -215l201 -272h-96l-154 202q-109 -123 -221.5 -193.5t-257.5 -70.5q-86 0 -158 27t-120 78t-70 121q-15 47 -15 100zM135 346q0 -109 64 -176q80 -86 245 -86q61 0 117.5 21.5t109 55.5t98.5 78t83 89l-8 12 l-352 424q-57 -31 -116 -65.5t-108 -77.5t-83.5 -96.5t-45.5 -121.5q-4 -30 -4 -57zM393 1120q0 -27 8 -53q10 -41 31 -80t45.5 -73.5t46.5 -65.5q51 25 110.5 53.5t111 65.5t88 84t45.5 110q2 20 2 39q0 72 -45 119q-56 61 -156 61q-51 0 -99.5 -16t-86 -47t-64.5 -73 t-35 -93q-2 -14 -2 -31z" />
<glyph unicode="'" horiz-adv-x="364" d="M207 1059l55 391h80l-76 -391h-59z" />
<glyph unicode="(" horiz-adv-x="512" d="M104 483q0 109 17 219q33 233 133 460t260 419l55 -45q-147 -178 -241.5 -395t-126.5 -441q-15 -111 -15 -217q0 -115 19 -225q33 -219 139 -401q-18 -12 -35.5 -20.5t-34.5 -18.5q-113 197 -149 424q-20 121 -21 241z" />
<glyph unicode=")" horiz-adv-x="518" d="M-45 -203q160 197 252 418t121 447q12 102 12 202q0 121 -18 242q-35 219 -129 410q18 12 34.5 20t32.5 18q106 -193 146 -424q20 -125 20 -253q0 -109 -16 -218q-31 -240 -130.5 -474t-265.5 -431z" />
<glyph unicode="*" horiz-adv-x="903" d="M176 1182q12 35 27 57l295 -100l39 313h63l-47 -313q74 23 156 47t157 49l11 -59l-318 -95l162 -260l-53 -39l-160 265q-49 -59 -110.5 -130t-114.5 -133q-12 10 -21.5 19.5t-19.5 17.5l233 264z" />
<glyph unicode="+" horiz-adv-x="1202" d="M104 659l11 78h473l65 461h76l-65 -461h454l-10 -78h-455l-65 -464h-76l66 464h-474z" />
<glyph unicode="," horiz-adv-x="428" d="M-66 -262l175 377h98q-27 -55 -51.5 -100.5t-48 -88.5t-48 -88t-51.5 -100h-74z" />
<glyph unicode="-" horiz-adv-x="868" d="M137 575l10 78h580l-10 -78h-580z" />
<glyph unicode="." horiz-adv-x="430" d="M63 61v11q4 33 31 55.5t60 22.5t51 -23q14 -18 14 -43v-12q-4 -33 -29.5 -55.5t-58.5 -22.5t-53 22q-14 18 -15 45z" />
<glyph unicode="/" horiz-adv-x="780" d="M-39 -27l821 1526l66 -22l-819 -1526q-20 8 -36 12t-32 10z" />
<glyph unicode="0" horiz-adv-x="1282" d="M100 324q0 27 4 57l97 688q14 104 70.5 180t135 125t172 72.5t183.5 23.5q88 0 174 -23.5t150.5 -72.5t99.5 -125q25 -53 24 -121q0 -29 -4 -59l-96 -688q-14 -102 -70.5 -178t-134.5 -125t-171 -73.5t-181 -24.5q-90 0 -176 24.5t-151.5 73.5t-100.5 125q-25 53 -25 121 zM180 332q0 -57 23 -103q31 -59 86 -98t127.5 -55.5t146.5 -16.5q72 0 150 16.5t144.5 55.5t113.5 99.5t59 150.5l96 688q4 27 4 51q0 57 -20 101q-31 61 -86 99t-128 54.5t-144 16.5q-74 0 -152 -16.5t-144.5 -54.5t-114.5 -99.5t-60 -151.5l-97 -688q-4 -26 -4 -49z" />
<glyph unicode="1" horiz-adv-x="602" d="M100 1126l353 326h94l-203 -1452h-78l191 1362l-307 -283z" />
<glyph unicode="2" horiz-adv-x="1132" d="M6 66l803 714q176 158 199 301q2 20 2 39q0 41 -13 80q-18 55 -62 97t-110.5 67t-152.5 29h-19q-121 0 -219 -50q-109 -55 -174 -161l-65 32q86 143 204.5 198.5t284.5 57.5q100 0 180 -28.5t133.5 -79.5t75.5 -123q16 -47 17 -100q0 -29 -5 -60q-12 -86 -71.5 -176 t-157.5 -176l-723 -647h819l-10 -80h-915z" />
<glyph unicode="3" horiz-adv-x="1175" d="M23 219l77 35q20 -49 58.5 -86t88.5 -60.5t110.5 -36t125.5 -12.5q80 0 159 20.5t144.5 61.5t109.5 103.5t56 146.5q6 41 6 80q0 123 -69 193q-86 90 -258 90h-8h-101l10 69h101q137 0 235.5 67.5t118.5 215.5q4 23 4 43q0 49 -16 88q-25 53 -72 89t-110.5 53.5 t-130.5 17.5q-109 0 -209.5 -41t-163.5 -123l-60 37q72 104 194 152t253 48q82 0 157.5 -21.5t131 -66.5t84.5 -112q18 -49 18 -109q0 -27 -4 -55q-6 -43 -20.5 -88t-41 -87t-66.5 -78t-97 -60q70 -27 112.5 -70t64 -96.5t23.5 -114.5v-23q0 -49 -6 -100 q-16 -102 -70.5 -179t-132 -128t-172 -76.5t-188.5 -25.5q-154 0 -273.5 57t-172.5 182z" />
<glyph unicode="4" horiz-adv-x="1167" d="M29 469l936 981h104l-137 -981h121l-11 -70h-120l-56 -399h-80l56 399h-781zM119 469h735l129 897z" />
<glyph unicode="5" horiz-adv-x="1185" d="M55 221l78 35q41 -92 141.5 -139t223.5 -47q80 0 161.5 23.5t149.5 69.5t114 112.5t56 152.5l10 98q2 23 2 41q0 61 -18 111q-25 66 -75 111t-120.5 68.5t-152.5 23.5q-115 0 -209 -20.5t-203 -69.5l-39 -5l94 664h856l-12 -80h-776l-68 -481q100 39 191 57q80 16 157 17 h19q90 0 175 -29t146.5 -83t94.5 -134q23 -57 22 -127q0 -29 -4 -62l-10 -100q-16 -104 -71.5 -186t-135.5 -138.5t-175 -86t-190 -29.5q-74 0 -140 13t-122.5 41t-99.5 72t-70 107z" />
<glyph unicode="6" horiz-adv-x="1269" d="M98 324q0 27 4 57l95 688q14 100 69.5 176t135 126t176 74.5t194.5 24.5q74 0 141.5 -14t125 -42t100.5 -69.5t65 -99.5l-76 -37q-20 45 -58 80t-86 57.5t-105.5 35t-118.5 12.5q-84 0 -166 -20.5t-148.5 -60.5t-111.5 -101.5t-58 -143.5l-51 -360q53 63 111.5 102 t118 60.5t120 28.5t117.5 7q96 0 183.5 -25.5t151 -75.5t95.5 -124q25 -55 25 -123q0 -27 -4 -53l-15 -123q-12 -100 -65 -175t-131 -125t-174 -75.5t-193 -25.5q-98 0 -187 24.5t-155.5 74.5t-99.5 126q-25 53 -25 119zM180 342q0 -57 21 -102q29 -61 84 -101.5t131 -61 t159 -20.5q82 0 163 20.5t146.5 61.5t109.5 101.5t55 142.5l14 119q2 23 2 43q0 55 -21 98q-27 61 -80 102t-126.5 61.5t-155.5 20.5q-84 0 -167 -20.5t-150.5 -60t-112.5 -101t-55 -143.5l-15 -119q-2 -23 -2 -41z" />
<glyph unicode="7" horiz-adv-x="1017" d="M35 0l954 1374h-817l10 76h881l22 -68l-960 -1382h-90z" />
<glyph unicode="8" horiz-adv-x="1261" d="M72 338q0 27 4 53q18 143 104 245.5t230 143.5q-53 18 -88 51t-54.5 76t-25.5 92q-2 23 -2 45q0 27 4 56q14 92 60 160.5t113.5 114.5t148.5 69.5t163 23.5h39q82 0 156.5 -23.5t130 -69.5t82.5 -113q18 -47 18 -107q0 -27 -4 -55q-6 -43 -23.5 -90t-46 -89t-72.5 -77 t-102 -56q129 -47 183 -151q37 -74 36 -166q0 -37 -6 -80q-16 -98 -70.5 -175t-132 -129t-172 -79.5t-188.5 -27.5h-39q-94 0 -180 27.5t-148.5 79.5t-95.5 130q-23 55 -22 121zM150 344q0 -55 22 -100q29 -63 84 -105.5t127 -63t145 -20.5h39q74 0 152 20.5t145.5 62.5 t115.5 105.5t60 149.5q6 39 7 72q0 57 -17 100q-25 68 -78 108t-127.5 56t-156.5 16h-39q-84 0 -163 -16t-143.5 -56t-109.5 -107.5t-59 -172.5q-4 -25 -4 -49zM315 1044q0 -49 17 -86q23 -53 68.5 -84.5t109 -43t129.5 -11.5h39q66 0 131 11.5t120.5 43t94.5 86t51 140.5 q4 25 4 45q0 47 -16 86q-23 55 -68 92t-107.5 54.5t-129.5 17.5h-39q-68 0 -135.5 -17.5t-122.5 -54.5t-93 -92t-49 -131q-4 -29 -4 -56z" />
<glyph unicode="9" horiz-adv-x="1269" d="M90 205l78 37q41 -90 142 -137.5t222 -47.5q84 0 166 20.5t149.5 60.5t113 101.5t57.5 143.5l49 356q-53 -59 -111.5 -96t-117 -56.5t-117.5 -25.5t-117 -6q-96 0 -184 25.5t-152.5 76t-97.5 125.5q-23 51 -23 115q0 29 5 59l16 111q14 100 67.5 175t131 125t173 75.5 t191.5 25.5q98 0 187.5 -24.5t155 -74.5t97.5 -126q27 -55 27 -125q0 -25 -4 -51l-96 -686q-14 -100 -69.5 -176t-135.5 -126t-176 -74.5t-195 -24.5q-74 0 -142.5 14t-124.5 41.5t-99 69.5t-66 100zM227 909q0 -51 19 -94q29 -59 83 -100t128.5 -61.5t156.5 -20.5 q84 0 166 20.5t148.5 60.5t111.5 101.5t58 142.5l16 107q4 25 4 47q0 53 -20 96q-29 61 -85.5 101.5t-132 61t-159.5 20.5q-82 0 -162 -20.5t-145.5 -61.5t-110.5 -101.5t-55 -142.5l-17 -107q-4 -24 -4 -49z" />
<glyph unicode=":" horiz-adv-x="442" d="M69 106v11q4 33 31 55.5t60 22.5t51 -23q14 -18 14 -43v-12q-4 -33 -29.5 -55.5t-58.5 -22.5t-53 22q-14 18 -15 45zM189 888q0 35 26 60q25 20 54 20t45 -20q14 -16 14 -39v-10q-4 -29 -26.5 -49.5t-51.5 -20.5t-47 20q-14 16 -14 39z" />
<glyph unicode=";" horiz-adv-x="538" d="M18 -217l164 344h105l-191 -344h-78zM236 858q0 35 26 60q25 20 54 20t45 -20q14 -16 14 -39v-10q-4 -29 -26.5 -49.5t-51.5 -20.5t-47 20q-14 16 -14 39z" />
<glyph unicode="&#x3c;" horiz-adv-x="894" d="M78 584l10 73l735 406l-12 -88l-659 -354q133 -84 280.5 -174.5t280.5 -176.5l-13 -86z" />
<glyph unicode="=" horiz-adv-x="1091" d="M123 444l10 72h793l-11 -72h-792zM162 727l10 70h793l-11 -70h-792z" />
<glyph unicode="&#x3e;" horiz-adv-x="897" d="M70 184l12 82l659 355l-561 354l13 88l624 -406l-10 -73z" />
<glyph unicode="?" horiz-adv-x="925" d="M147 1298q78 78 175.5 117t203.5 39q84 0 160 -25.5t131 -75.5t82 -124q16 -49 16 -109q0 -31 -4 -65q-14 -96 -60 -170t-111.5 -127t-145.5 -86t-164 -47q-6 -39 -15 -90.5t-19.5 -105.5t-19.5 -106.5t-18 -91.5h-59l53 459q84 2 167 28.5t149.5 74t111.5 114t56 150.5 q4 25 4 47q0 51 -17 92q-25 61 -70.5 101t-108 60.5t-132.5 20.5q-41 0 -85 -10t-87 -27.5t-83 -41t-73 -50.5zM229 55v11q4 33 30.5 55t59.5 22t52 -22q14 -18 14 -43v-12q-4 -33 -29.5 -55.5t-58.5 -22.5t-51 22q-16 18 -17 45z" />
<glyph unicode="@" horiz-adv-x="1579" d="M98 508q0 53 8 108q20 152 96.5 284t188 230.5t250.5 154.5t291 56q141 0 257 -44t193.5 -122.5t112.5 -185.5q27 -74 27 -153q0 -37 -6 -76q-16 -121 -76 -227.5t-137.5 -184.5t-163.5 -123q-76 -39 -142 -39h-12q-55 4 -72 43q-10 23 -10 62q0 25 4 55 q-72 -78 -155.5 -119t-155.5 -41q-61 0 -105.5 21.5t-70 59.5t-35.5 89q-4 25 -4 54q0 25 4 51q14 100 60.5 201.5t116 182.5t160.5 131t196 50q31 0 65.5 -11t63 -36t48 -66t19.5 -102q8 14 21 37l22 47q12 25 23.5 49.5t21.5 40.5h70l-264 -555q-16 -33 -26.5 -62.5 t-12.5 -39.5t-1 -23.5t7 -25t19 -18.5t36 -7q55 0 123 46t129 119t107.5 163t58.5 178q6 37 6 71q0 76 -24 142q-37 96 -110 163.5t-175.5 105.5t-218.5 38q-147 0 -275.5 -54.5t-228.5 -145.5t-164.5 -211.5t-83.5 -252.5q-6 -47 -6 -94q0 -104 37 -203q51 -137 156.5 -230 t256.5 -126q59 -14 123 -14q96 0 203 31q6 -16 10 -29.5t11 -26.5q-121 -39 -234 -39h-10q-119 2 -220.5 38t-182 103.5t-134 157.5t-73.5 201q-12 59 -13 123zM453 426q0 -68 32 -115q43 -59 131 -59q76 0 150 49t134.5 122t101 156t51.5 152q4 31 4 57q0 68 -25 111 q-37 61 -133 62h-8q-88 0 -162 -48q-78 -49 -135 -122.5t-93 -161.5t-46 -164q-2 -21 -2 -39z" />
<glyph unicode="A" horiz-adv-x="1226" d="M-66 0l738 1450h116l326 -1450h-86l-113 504h-649l-246 -504h-86zM307 584h594l-180 807z" />
<glyph unicode="B" horiz-adv-x="1290" d="M90 -2l205 1454h545q80 0 148.5 -23.5t115.5 -69.5t67 -114q14 -41 15 -92q0 -29 -4 -61q-10 -86 -57.5 -169t-133.5 -130l-63 -25l65 -14q61 -25 97 -66t52.5 -89t16.5 -101q2 -7 2 -13q0 -47 -8 -92q-16 -109 -63.5 -184.5t-116 -122.5t-155.5 -67.5t-185 -20.5h-543z M182 78h465h21q72 0 135 12q74 16 129 53t93 98.5t50 153.5q6 39 6 72q0 127 -73 188q-90 76 -260 76h-9h-465zM285 803h465q137 0 236 68.5t120 218.5q4 27 4 51q0 41 -12 76q-16 53 -54 88.5t-93.5 54t-121.5 18.5h-464z" />
<glyph unicode="C" horiz-adv-x="1202" d="M106 340q0 29 5 59l90 648q14 104 71.5 182t139.5 131t180 79.5t196 26.5q72 0 140.5 -13t127 -42t102.5 -72t67 -102l-76 -37q-43 92 -148.5 139t-228.5 47q-82 0 -165 -21.5t-151.5 -63t-115.5 -105t-59 -149.5l-91 -648q-4 -25 -4 -49q0 -55 23 -100q29 -63 85 -105.5 t133 -64t159 -21.5q123 0 241.5 47.5t190.5 139.5l63 -35q-39 -59 -96 -102t-123.5 -72t-140.5 -43t-148 -14q-96 0 -186 26.5t-156.5 78.5t-99.5 132q-25 55 -25 123z" />
<glyph unicode="D" horiz-adv-x="1312" d="M90 0l203 1450h504q98 0 182 -22.5t143.5 -71.5t85.5 -127q16 -49 17 -111q0 -35 -4 -71l-91 -646q-14 -106 -63 -182t-121 -125t-163 -71.5t-189 -22.5h-504zM180 80h424q82 0 158 18.5t136 56.5t100 99t53 147l90 646q4 31 4 57q0 51 -15 90q-23 61 -71.5 100 t-119.5 57.5t-153 18.5h-424z" />
<glyph unicode="E" horiz-adv-x="1153" d="M90 0l203 1450h876l-10 -80h-797l-86 -604h736l-13 -82h-735l-84 -604h797l-10 -80h-877z" />
<glyph unicode="F" horiz-adv-x="1120" d="M90 2l203 1448h864l-10 -80h-785l-90 -633h707l-10 -80h-707l-92 -655h-80z" />
<glyph unicode="G" horiz-adv-x="1294" d="M109 344q0 31 4 62l88 645q14 104 69.5 182t137 131t179 79.5t195.5 26.5q72 0 140.5 -14t126 -43t101.5 -72t67 -102l-76 -37q-20 49 -58.5 85t-87.5 58.5t-107.5 34t-119.5 11.5q-82 0 -164 -21.5t-150.5 -63.5t-114.5 -105.5t-58 -149.5l-88 -645q-4 -25 -5 -50 q0 -55 21 -102q31 -63 86 -106.5t131 -65t160 -21.5q82 0 165 21.5t152.5 64.5t116.5 107.5t59 151.5l31 215h-444l10 79h524l-41 -294q-16 -106 -71.5 -186.5t-137.5 -133.5t-179 -79.5t-196 -26.5q-98 0 -188 26.5t-155.5 79.5t-100.5 133q-22 53 -22 119v6z" />
<glyph unicode="H" horiz-adv-x="1402" d="M90 0l203 1450h80l-97 -686h887l97 686h79l-202 -1450h-80l94 684h-887l-94 -684h-80z" />
<glyph unicode="I" horiz-adv-x="436" d="M90 0l203 1448h80l-203 -1448h-80z" />
<glyph unicode="J" horiz-adv-x="1189" d="M-4 299l78 16q8 -66 40.5 -114.5t84 -81.5t115 -49.5t130.5 -16.5q78 0 156 21.5t142.5 64.5t109.5 107.5t57 150.5l138 973h-484l10 80h564l-148 -1053q-14 -104 -68.5 -182t-133 -130t-172 -78.5t-187.5 -26.5q-80 0 -154.5 19t-133 59t-97.5 100.5t-47 140.5z" />
<glyph unicode="K" horiz-adv-x="1224" d="M90 2l203 1448h80l-119 -846l950 846h107l-776 -702l571 -746h-100l-537 692l-231 -202l-68 -490h-80z" />
<glyph unicode="L" horiz-adv-x="1013" d="M90 2l203 1450h80l-193 -1370h725l-10 -80h-805z" />
<glyph unicode="M" horiz-adv-x="1636" d="M90 0l203 1450h139l342 -1139l664 1139h135l-203 -1450h-80l195 1389l-680 -1170h-86l-354 1172l-195 -1391h-80z" />
<glyph unicode="N" horiz-adv-x="1376" d="M90 0l203 1450h100l649 -1350l191 1350h80l-203 -1450h-117l-637 1327l-186 -1327h-80z" />
<glyph unicode="O" horiz-adv-x="1390" d="M104 346q0 29 5 60l90 641q14 106 72.5 185t144.5 132t188.5 79.5t206.5 26.5t199.5 -26.5t166 -79.5t107.5 -131q27 -57 27 -129q0 -27 -4 -57l-90 -641q-14 -106 -74 -186.5t-145 -133.5t-188 -79.5t-208 -26.5q-104 0 -199.5 26.5t-166 79.5t-105.5 133 q-27 57 -27 127zM184 358q0 -57 25 -104q31 -66 90 -109t141 -64.5t172 -21.5q88 0 177.5 21.5t162 64.5t122.5 108.5t63 152.5l90 641q4 27 4 49q0 61 -23 108q-33 66 -94 108t-144 61.5t-171 19.5t-176 -20.5t-160 -63.5t-122 -107.5t-62 -154.5l-91 -641q-4 -25 -4 -48z " />
<glyph unicode="P" horiz-adv-x="1236" d="M90 2l203 1448h526q113 -2 194 -41t129 -101.5t66 -140.5q13 -49 13 -100q0 -31 -4 -63q-12 -82 -51.5 -161t-106 -140.5t-157.5 -100.5t-206 -39h-448l-78 -561h-80zM260 643h447q129 0 221 54.5t145 134t66 174.5q4 27 4 51q0 66 -25 123q-31 82 -107.5 135t-201.5 55 h-447z" />
<glyph unicode="Q" horiz-adv-x="1386" d="M106 346q0 29 5 60l86 641q14 106 71.5 185t142.5 132t188 79.5t212 26.5q104 0 199.5 -26.5t165 -79.5t106.5 -131q25 -57 25 -127q0 -29 -4 -59l-86 -641q-12 -82 -53.5 -151t-98.5 -122l84 -123l-72 -41l-78 117q-92 -53 -194.5 -79.5t-200.5 -26.5 q-104 0 -199.5 26.5t-166 79.5t-107.5 133q-25 57 -25 127zM186 358q0 -57 23 -104q33 -66 93 -109t141 -64.5t171 -21.5q86 0 176.5 21.5t170.5 69.5l-99 161l68 43l96 -155q45 47 73.5 98t37.5 109l86 641q4 26 4 49q0 61 -23 108q-33 66 -93 108t-143 61.5t-171 19.5 t-176.5 -20.5t-160 -63.5t-121.5 -107.5t-63 -154.5l-86 -641q-4 -25 -4 -48z" />
<glyph unicode="R" horiz-adv-x="1251" d="M90 0l203 1450h526q98 0 178 -23.5t135.5 -72.5t79.5 -127q18 -53 19 -119q0 -31 -4 -66q-16 -117 -61.5 -194.5t-113 -125.5t-155.5 -67.5t-190 -19.5h-48l400 -635h-94l-400 635h-307l-88 -635h-80zM268 705h449q190 0 296.5 75.5t133.5 259.5q4 35 4 68q0 49 -12 88 q-18 63 -63.5 102t-112.5 58q-61 14 -134 14h-18h-449z" />
<glyph unicode="S" horiz-adv-x="1191" d="M41 233l76 33q20 -51 60 -90t93.5 -65.5t116 -40t127.5 -13.5q74 0 145.5 16.5t134 52.5t108.5 92t69 136q8 37 8 70q0 49 -16 84q-29 61 -85.5 100t-134 60.5t-157.5 40.5q-82 18 -162 45.5t-140.5 75t-90.5 116.5q-18 43 -19 101q0 33 6 71q16 88 67.5 154.5t124 110.5 t161 65.5t178.5 21.5q74 0 145.5 -15t132 -45t106.5 -76t68 -107l-76 -31q-18 49 -58 87t-92 63.5t-113.5 39t-123.5 13.5q-74 0 -146.5 -14.5t-133 -48t-103.5 -88t-59 -132.5q-6 -32 -6 -61q0 -39 12 -72q23 -55 74 -95t124 -66.5t156 -43.5q88 -18 175.5 -44.5t152 -75 t94.5 -121.5q18 -45 19 -103q0 -37 -8 -82q-16 -92 -70.5 -160.5t-130.5 -115.5t-167 -70.5t-183 -23.5q-72 0 -144.5 15t-134 47t-110 79t-70.5 110z" />
<glyph unicode="T" horiz-adv-x="1118" d="M139 1370l11 80h1046l-10 -80h-484l-192 -1370h-80l193 1370h-484z" />
<glyph unicode="U" horiz-adv-x="1384" d="M133 344q0 33 6 68l146 1038h80l-146 -1038q-4 -27 -4 -52q0 -57 21 -102q29 -66 85 -110t131.5 -65.5t159.5 -21.5q82 0 165 21.5t152.5 66t117 110t59.5 153.5l145 1038h80l-145 -1038q-16 -109 -71.5 -190t-137.5 -134t-179.5 -80.5t-195.5 -27.5t-188 27.5t-157 80.5 t-101 133q-23 55 -23 123z" />
<glyph unicode="V" horiz-adv-x="1232" d="M141 1450h88l308 -1391l700 1389h86l-729 -1448h-129z" />
<glyph unicode="W" horiz-adv-x="1900" d="M158 1450h82l196 -1380h8l551 1169h84l213 -1169h8l596 1380h82l-632 -1450h-119l-203 1141l-532 -1141h-119z" />
<glyph unicode="X" horiz-adv-x="1132" d="M-51 0l583 723l-376 725h90l344 -655l524 655h94l-581 -725l381 -723h-97l-340 666l-526 -666h-96z" />
<glyph unicode="Y" horiz-adv-x="1097" d="M137 1448h92l324 -803l547 803h94l-612 -875l-80 -573h-80l80 573z" />
<glyph unicode="Z" horiz-adv-x="1138" d="M-31 47l1106 1329h-876l10 74h946l37 -45l-1108 -1331h893l-10 -74h-969z" />
<glyph unicode="[" horiz-adv-x="495" d="M29 -252l254 1798h266l-10 -65h-189l-233 -1667h188l-10 -66h-266z" />
<glyph unicode="\" horiz-adv-x="806" d="M174 1528l74 22l416 -1603l-76 -25z" />
<glyph unicode="]" horiz-adv-x="499" d="M-43 -268l8 75h185l235 1668h-184l10 71h266l-256 -1814h-264z" />
<glyph unicode="^" horiz-adv-x="1058" d="M150 911l456 539h74q82 -135 158.5 -269t158.5 -270h-92l-270 480q-94 -115 -195.5 -239t-197.5 -241h-92z" />
<glyph unicode="_" horiz-adv-x="1236" d="M25 -129l10 74h983l-10 -74h-983z" />
<glyph unicode="`" horiz-adv-x="430" d="M102 1794h99l125 -227h-76z" />
<glyph unicode="a" horiz-adv-x="1050" d="M82 244q0 25 4 53l64 455q12 92 56 155.5t106.5 101.5t139 54t154.5 16q98 0 187.5 -17.5t156.5 -49.5l-141 -1012h-70l15 113q-72 -70 -160 -101.5t-180 -31.5q-68 0 -131.5 17t-111.5 56t-73 99q-16 41 -16 92zM154 252q0 -39 14 -70q18 -47 57 -77.5t91.5 -44 t109.5 -13.5q92 0 182 39t156 104l106 768q-51 27 -120.5 40.5t-143.5 13.5q-66 0 -130 -13.5t-117.5 -44t-90.5 -80t-47 -120.5l-63 -457q-4 -23 -4 -45z" />
<glyph unicode="b" horiz-adv-x="1044" d="M72 41l198 1409h74l-63 -440q172 71 319 71q72 0 138.5 -20.5t113.5 -61.5t72 -102q16 -41 16 -94q0 -23 -2 -45l-61 -441q-12 -80 -53.5 -142t-99.5 -104t-129 -64.5t-142 -24.5q-199 0 -381 59zM154 98q78 -29 155.5 -37t153.5 -8q57 0 113.5 17.5t103.5 50.5t80 82 t41 110l61 445q2 18 2 37q0 41 -12 73q-20 47 -59 78t-91.5 46.5t-109.5 15.5q-78 0 -157 -21.5t-165 -60.5z" />
<glyph unicode="c" horiz-adv-x="929" d="M80 256q0 23 2 47l61 455q10 82 52.5 142.5t101.5 100t130 60t142 20.5q100 0 186.5 -37.5t125.5 -117.5l-64 -39q-35 61 -104.5 91t-153.5 30q-57 0 -114.5 -14.5t-105.5 -45t-81 -77t-41 -109.5l-61 -459q-2 -18 -2 -37q0 -43 14 -76q18 -47 57 -77.5t92.5 -45 t110.5 -14.5q92 0 179 39t132 117l64 -33q-59 -96 -166 -146t-219 -50q-72 0 -136.5 20t-112.5 60t-73 100q-16 43 -16 96z" />
<glyph unicode="d" horiz-adv-x="1048" d="M80 256q0 23 4 47l61 455q10 80 51.5 140t101.5 101t132 61.5t143 20.5q74 0 151 -16t150 -51l62 436h74l-197 -1407q-98 -29 -198.5 -46t-200.5 -17q-70 2 -134.5 22.5t-111.5 60t-70 101.5q-18 41 -18 92zM158 266q0 -41 12 -73q18 -47 55 -79t89.5 -47.5t109.5 -15.5 q76 0 157 10.5t167 38.5l114 840q-72 35 -148.5 51.5t-152.5 16.5q-59 0 -115.5 -15.5t-103.5 -46.5t-80 -77t-41 -109l-61 -457q-2 -20 -2 -37z" />
<glyph unicode="e" horiz-adv-x="978" d="M80 250q0 25 4 51l61 449q12 84 53.5 146t100.5 103t131 61.5t143 20.5q70 0 135.5 -19.5t112.5 -59t72 -101.5q16 -41 16 -90q0 -27 -4 -53q-12 -86 -53 -150.5t-101.5 -106.5t-133 -63.5t-146.5 -21.5q-72 0 -146.5 16.5t-146.5 50.5l-26 -184q-5 -23 -5 -41 q0 -41 17 -74q20 -47 60 -77.5t94.5 -45t109.5 -14.5q86 0 169 33t132 102l55 -30q-59 -84 -160.5 -128t-203.5 -44q-72 0 -137.5 19t-113.5 59t-73 102q-16 39 -16 90zM186 547q61 -27 143 -46.5t160 -19.5q61 0 119 15.5t105 49.5t79.5 86t43.5 126q2 20 2 39q0 43 -13 75 q-18 49 -57 82t-92 48.5t-111 15.5q-59 0 -117.5 -16.5t-107.5 -49t-83 -83t-42 -117.5z" />
<glyph unicode="f" horiz-adv-x="507" d="M-45 -307q47 39 68.5 91t29.5 105l176 1260q10 76 41 138.5t77 104.5t108 62q41 12 90 12q20 0 43 -2l-10 -63q-20 2 -39 2q-35 0 -66 -10q-47 -14 -84 -49t-59.5 -85.5t-30.5 -109.5l-23 -141h230l-8 -62h-230l-145 -1057q-10 -80 -48 -142t-87 -101z" />
<glyph unicode="g" horiz-adv-x="1038" d="M53 -319l47 47q47 -43 120 -66.5t147 -23.5q61 0 118.5 14t103.5 43t76.5 75t41.5 109l28 176q-88 -41 -165.5 -58t-149.5 -17t-137.5 20t-112.5 60t-72 100q-16 43 -16 94q0 23 4 47l64 461q10 80 50 139.5t98 99t128 60t139 20.5q106 0 190.5 -21.5t184.5 -55.5 l-162 -1123q-12 -82 -52 -141t-97.5 -97t-128 -56.5t-140.5 -18.5q-92 0 -174 28.5t-133 84.5zM158 264q0 -41 12 -74q18 -47 55 -78.5t88.5 -47t110.5 -15.5q49 0 87 5t74 14.5t73.5 23.5t86.5 37l115 819q-51 23 -134 42.5t-171 19.5q-57 0 -112.5 -15.5t-101.5 -46 t-78 -77t-40 -107.5l-63 -463q-2 -20 -2 -37z" />
<glyph unicode="h" horiz-adv-x="1069" d="M70 0l202 1450h74l-59 -444q168 75 313 75h4h12q66 0 125 -18q66 -20 114 -61t73 -101q16 -41 16 -90q0 -25 -4 -51l-109 -760h-73l108 760q2 18 2 37q0 41 -12 71q-20 47 -59 78t-91.5 46.5t-109.5 15.5q-74 0 -157 -16.5t-163 -47.5l-133 -944h-73z" />
<glyph unicode="i" horiz-adv-x="389" d="M68 0l147 1061h76l-148 -1061h-75zM217 1290q0 35 26 60q25 20 54 20t45 -20q14 -16 14 -39v-10q-4 -29 -26.5 -49.5t-51.5 -20.5t-47 20q-14 16 -14 39z" />
<glyph unicode="j" horiz-adv-x="389" d="M-211 -373l10 74q113 4 180.5 66.5t83.5 187.5l156 1106h74l-156 -1106q-23 -158 -116 -240t-232 -88zM221 1290q0 35 29 60q22 20 51 20t47 -20q12 -16 12 -39v-11q-4 -29 -26.5 -49t-50.5 -20q-29 0 -47 20q-14 16 -15 39z" />
<glyph unicode="k" horiz-adv-x="960" d="M70 0l202 1450h74l-139 -997l674 608h90l-525 -477l377 -584h-88l-348 530l-194 -170l-50 -360h-73z" />
<glyph unicode="l" horiz-adv-x="448" d="M98 219q0 35 6 76l160 1155h74l-160 -1155q-4 -35 -4 -64q0 -72 27 -116q41 -61 151 -62l-10 -73q-135 4 -199 81q-45 60 -45 158z" />
<glyph unicode="m" horiz-adv-x="1656" d="M66 0l139 995q72 47 163 66.5t181 19.5q96 0 178 -28.5t141 -118.5q41 43 81 71.5t80 45t81 22.5t82 8h14q68 0 129 -16q66 -20 112 -62t69 -106q12 -43 12 -90q0 -29 -4 -59l-105 -748h-76l103 743q6 31 6 58q0 49 -20 86q-33 57 -92.5 87t-135.5 32h-10q-70 0 -133 -23 q-68 -23 -118 -72t-60 -123l-111 -788h-72l111 788q2 14 2 29q0 66 -47 109q-57 49 -143 67q-51 10 -105 11q-39 0 -80 -5q-96 -14 -164 -53l-133 -946h-75z" />
<glyph unicode="n" d="M66 0l141 1004q96 33 196.5 55t200.5 22q70 -2 134.5 -22.5t111.5 -60.5t72 -101q14 -39 14 -86q0 -27 -4 -53l-107 -758h-73l106 758q2 18 2 37q0 41 -12 73q-20 47 -58 78t-89.5 45.5t-106.5 14.5q-88 0 -176 -19.5t-148 -42.5l-131 -944h-73z" />
<glyph unicode="o" horiz-adv-x="1015" d="M80 258q0 23 2 47l61 451q10 82 52.5 142t101.5 101t130.5 61.5t143.5 20.5t137.5 -20.5t112.5 -61.5t72 -102q16 -41 16 -94q0 -23 -2 -47l-61 -451q-10 -82 -51 -142.5t-101.5 -101.5t-132.5 -61t-143 -20q-72 0 -136.5 20t-112.5 61t-73 103q-16 41 -16 94zM152 264 q0 -41 14 -71q20 -49 60 -80t93.5 -45.5t108.5 -14.5t112.5 14.5t105.5 45t82 79t44 113.5l62 451q2 18 2 37q0 43 -15 75q-20 47 -59 78t-92.5 45.5t-108.5 14.5t-112.5 -14.5t-105.5 -45.5t-83 -78t-43 -112l-61 -451q-4 -23 -4 -41z" />
<glyph unicode="p" horiz-adv-x="1048" d="M14 -371l195 1391q55 16 102 28.5t94.5 19.5t96.5 10t104 3q70 0 135.5 -19.5t112.5 -58t72 -98.5q16 -41 16 -92q0 -27 -4 -55l-61 -451q-10 -80 -52.5 -141.5t-101.5 -103.5t-131 -62t-143 -20q-74 2 -151 14t-151 49l-59 -414h-74zM158 121q70 -31 147.5 -48.5 t155.5 -17.5q57 0 114.5 15.5t104.5 46t80 78t41 108.5l61 455q2 20 2 39q0 41 -12 73q-18 47 -56 77t-90.5 44.5t-109.5 14.5q-76 0 -155 -7.5t-167 -35.5z" />
<glyph unicode="q" horiz-adv-x="1044" d="M78 264q0 23 4 47l61 447q10 80 51.5 140t100.5 101t130 61.5t142 20.5q61 0 108.5 -3t88.5 -10t84 -20.5t98 -31.5l-194 -1387h-74l59 424q-84 -37 -163.5 -54t-155.5 -19q-72 0 -137.5 21.5t-113.5 63t-73 103.5q-16 45 -16 96zM154 270q0 -39 14 -69q18 -47 57 -78 t91.5 -47.5t111.5 -16.5q76 0 156 18.5t166 61.5l116 826q-35 12 -75.5 20t-82.5 12t-82 6.5t-71 2.5q-57 0 -113.5 -15.5t-102.5 -46.5t-78 -77t-40 -105l-63 -451q-4 -23 -4 -41z" />
<glyph unicode="r" horiz-adv-x="602" d="M61 0l105 754q8 66 37.5 119t72.5 93t98.5 66.5t114.5 38.5q35 8 64 8q4 0 8 -2q31 0 68 -4l-11 -72q-34 5 -66 5h-4q-30 0 -63 -9q-88 -20 -159.5 -79.5t-85.5 -163.5l-105 -754h-74z" />
<glyph unicode="s" horiz-adv-x="890" d="M27 172l65 39q53 -88 129 -127q72 -37 160 -37h10q41 0 89 14.5t91 42t74 70.5t39 100q2 18 2 35q0 37 -12 66q-18 41 -54 67.5t-81 42t-88 23.5q-59 10 -119 28.5t-106 50t-70 81.5q-16 37 -17 84q0 20 2 43q10 82 54.5 140t104.5 93t134 47q43 8 84 8q29 0 55 -4 q70 -8 129.5 -35.5t96.5 -74.5l-54 -54q-45 57 -127 82q-51 16 -104 17q-31 0 -59 -6q-84 -12 -151.5 -65.5t-84.5 -147.5q-2 -16 -2 -31q0 -43 16 -72q25 -37 65 -60.5t87 -33.5t88 -18q57 -10 111.5 -32t95.5 -57.5t61 -89.5q14 -39 15 -86q0 -20 -2 -41q-10 -72 -46 -126 t-87.5 -91t-113 -56t-124.5 -21h-18q-106 0 -193 45q-92 49 -145 147z" />
<glyph unicode="t" horiz-adv-x="532" d="M98 252q0 23 4 49l144 1006h69l-32 -246h229l-8 -66h-230l-98 -694q-4 -23 -4 -45q0 -37 12 -68q18 -49 54 -79.5t86 -47.5q45 -12 92 -12h12l-10 -69q-72 0 -133.5 20t-105.5 61t-64 101q-17 41 -17 90z" />
<glyph unicode="u" d="M100 252q0 25 4 51l107 758h74l-107 -758q-4 -20 -4 -41q0 -39 14 -69q20 -47 58.5 -78t89.5 -45.5t106 -14.5q88 0 177.5 19.5t146.5 42.5l131 944h74l-140 -1004q-98 -33 -198.5 -55t-200.5 -22q-70 2 -133 22.5t-110.5 60t-71.5 101.5q-17 39 -17 88z" />
<glyph unicode="v" horiz-adv-x="948" d="M102 1061h80l211 -1004l498 1004h78l-529 -1061h-108z" />
<glyph unicode="w" horiz-adv-x="1464" d="M111 1061h75l160 -1022l389 1022h113l106 -1018l445 1018h76l-467 -1061h-125l-97 1012l-387 -1012h-118z" />
<glyph unicode="x" horiz-adv-x="909" d="M-27 0l420 530l-272 531h92l236 -479l370 479h90l-417 -531l270 -530h-90l-238 479l-371 -479h-90z" />
<glyph unicode="y" d="M76 -319l53 45q47 -43 115.5 -65.5t144.5 -22.5q57 0 114.5 14t103.5 43t79 75t43 109l27 176q-88 -41 -166 -58t-150 -17t-137 20t-113.5 60t-70.5 100q-18 43 -19 94q0 23 4 47l105 758h74l-105 -758q-2 -20 -2 -37q0 -41 12 -74q18 -47 55.5 -78.5t89.5 -48t111 -16.5 q49 0 87 5t74 14.5t74 24.5t87 36l129 932h72l-166 -1178q-12 -82 -52 -141t-97.5 -97t-128 -56.5t-140.5 -18.5q-92 0 -174 28.5t-133 84.5z" />
<glyph unicode="z" horiz-adv-x="915" d="M-18 57l809 934h-637l8 70h708l25 -49l-811 -940h668l-9 -72h-729z" />
<glyph unicode="{" horiz-adv-x="550" d="M82 608l8 62q43 6 76 36.5t55.5 76.5t37.5 103.5t24 117.5l43 296q6 53 19 98.5t37 77t60.5 50t94.5 18.5h61l-8 -69h-55q-78 0 -100.5 -45.5t-33.5 -131.5l-43 -299q-12 -88 -33.5 -151.5t-47 -105.5t-51 -65.5t-46.5 -31.5q10 -8 28.5 -27.5t34 -59.5t21.5 -107 q2 -18 2 -43q0 -53 -10 -125l-43 -301q-4 -31 -4 -58q0 -37 8 -61q16 -41 94 -41h45l-10 -72h-49q-106 0 -141 62q-25 41 -25 104q0 29 6 61l41 299q8 59 10 117v13q0 49 -8 90q-10 45 -33.5 75.5t-64.5 36.5z" />
<glyph unicode="|" horiz-adv-x="378" d="M16 -344l265 1888h73l-264 -1888h-74z" />
<glyph unicode="}" horiz-adv-x="550" d="M-43 -250l10 72h45q76 0 104.5 41t39.5 119l43 301q14 102 38.5 168.5t51 106.5t51.5 59.5t37 27.5q-18 8 -38 31.5t-34 65.5t-18 106v26q0 55 10 125l43 299q6 43 8 76t-5 55.5t-27.5 34t-59.5 11.5h-55l8 69h61q57 0 89 -18.5t47.5 -50t15.5 -76.5t-6 -99l-43 -296 q-10 -68 -11 -127q0 -51 11 -95q12 -45 34.5 -75.5t63.5 -36.5l-8 -62q-43 -6 -75 -36.5t-54.5 -75.5t-37.5 -102.5t-24 -117.5l-41 -299q-16 -104 -67 -165.5t-158 -61.5h-49z" />
<glyph unicode="~" horiz-adv-x="1087" d="M139 569q20 27 46 55.5t56.5 50t67.5 36t80 14.5q57 0 101.5 -25.5t82.5 -54.5q35 -25 69 -43t71 -18q63 0 111 39t91 92l33 -35q-41 -63 -104 -111q-25 -18 -74 -32.5t-68 -16.5q-51 0 -95 20.5t-79 47.5q-39 27 -73.5 49t-79.5 22q-63 0 -110.5 -37.5t-92.5 -91.5 q-12 10 -17 19.5t-16 19.5z" />
<glyph unicode="&#xa1;" horiz-adv-x="395" d="M6 -434l162 1153h82l-162 -1153h-82zM176 981q0 35 29 59q22 21 51 21t47 -21q12 -16 12 -39v-10q-4 -29 -26.5 -49t-50.5 -20q-29 0 -48 20q-14 16 -14 39z" />
<glyph unicode="&#xa2;" horiz-adv-x="950" d="M78 276q0 23 4 48l61 438q10 74 46 130t90.5 96t120 63.5t132.5 29.5l25 176h64l-25 -176q96 -6 171 -43t112 -108l-64 -39q-29 53 -90 83t-139 38l-131 -938q94 8 169.5 45t116.5 110l60 -32q-51 -92 -148.5 -139.5t-208.5 -57.5l-28 -195h-64l29 195q-68 8 -126 31.5 t-100 63.5t-63 98q-14 38 -14 83zM154 289q0 -35 10 -64q16 -43 49 -73.5t79 -49t99 -26.5l131 934q-55 -8 -107.5 -26.5t-93 -48.5t-68.5 -72t-36 -97l-61 -442q-2 -19 -2 -35z" />
<glyph unicode="&#xa3;" horiz-adv-x="1032" d="M16 0l9 68h213l92 659h-213l10 70h213l39 276q8 66 36.5 136.5t82 128t134 94t193.5 36.5q72 0 127.5 -21.5t108.5 -70.5l-60 -51q-72 74 -192 74q-84 0 -146.5 -29t-105.5 -75t-67.5 -103t-32.5 -113l-41 -282h338l-11 -70h-337l-93 -659h502l-8 -68h-791z" />
<glyph unicode="&#xa4;" horiz-adv-x="1263" d="M109 289l122 110q-53 70 -71 154q-8 47 -8 98q0 37 4 74q25 180 172 322q-23 25 -47.5 56.5t-49.5 57.5l50 45l94 -112q78 55 166 85.5t174 30.5t166 -30.5t143 -85.5q23 18 58.5 54t62.5 58l37 -45l-127 -114q53 -70 71 -150q12 -51 13 -104q0 -33 -4 -68 q-12 -90 -55.5 -171t-116.5 -151q23 -25 51 -56.5t51 -57.5l-53 -45l-94 112q-78 -55 -166 -84.5t-174 -29.5t-168 27.5t-146 82.5q-23 -18 -57.5 -52t-61.5 -56zM221 662q0 -53 15 -103q23 -76 71.5 -132t119.5 -89t155 -33q86 0 165.5 33t145 89t110 132t56.5 164 q4 33 4 63q0 53 -14 103q-20 78 -67.5 134t-117 89t-155.5 33q-84 0 -165 -33t-147.5 -89t-112.5 -134t-59 -166q-4 -30 -4 -61z" />
<glyph unicode="&#xa5;" horiz-adv-x="1177" d="M160 344l18 70h332l18 127h-335l22 71h289l-338 840h92l322 -823l557 823h96l-580 -840h305l-24 -71h-332l-18 -127h346l-23 -70h-334l-47 -344h-73l47 344h-340z" />
<glyph unicode="&#xa6;" horiz-adv-x="403" d="M37 -274l100 716h78l-100 -716h-78zM180 750l94 675h78l-94 -675h-78z" />
<glyph unicode="&#xa7;" horiz-adv-x="962" d="M0 -59l80 34q10 -61 55 -101t107 -58q49 -13 104 -13h27q68 4 129 30t104 74t53 120q2 14 3 28q0 35 -15 64q-18 39 -53 70.5t-83 57t-99 50.5q-55 27 -110.5 57.5t-98.5 70.5t-68 91q-16 37 -16 84q0 18 4 41q14 96 90 163.5t178 108.5q-78 51 -117 109q-31 45 -30 108 q0 16 2 35q10 74 50 130.5t96.5 94t123 57t133.5 19.5q39 0 83 -8t83 -27.5t68.5 -50t44.5 -75.5q-23 -10 -36 -19.5t-36 -19.5q-27 66 -87 96.5t-136 30.5q-49 0 -101.5 -15.5t-95.5 -44t-73.5 -70.5t-38.5 -98q-2 -12 -2 -24q0 -35 14 -64q18 -37 53 -67.5t83 -55 t97 -49.5q53 -27 106.5 -56.5t95.5 -69.5t65 -91q14 -37 14 -82q0 -18 -2 -37q-12 -86 -79 -161.5t-153 -120.5q72 -47 105 -115q25 -49 24 -100q0 -14 -2 -31q-14 -96 -68 -163.5t-129 -105.5t-161 -46q-27 -4 -53 -5q-59 0 -115 17q-78 20 -137.5 70.5t-79.5 132.5z M205 606q0 -20 4 -39q6 -33 24.5 -57.5t44 -41.5t56.5 -34l215 -108q33 16 68.5 40.5t68.5 54.5t55.5 65.5t28.5 72.5q2 13 2 25q0 29 -10 51q-12 37 -33.5 66.5t-49.5 52t-52 37.5l-152 77q-41 -12 -85 -31.5t-83 -46t-66.5 -62.5t-33.5 -83q-2 -20 -2 -39z" />
<glyph unicode="&#xa8;" horiz-adv-x="614" d="M168 1671q0 33 25 53q20 19 45 19q27 0 42 -17.5t11 -44.5q-4 -25 -23.5 -43t-46.5 -18q-25 0 -41 18q-12 14 -12 33zM516 1663q0 35 29 59q22 21 51 21t47 -21q12 -16 12 -39v-10q-4 -29 -26.5 -49t-50.5 -20q-29 0 -48 20q-14 16 -14 39z" />
<glyph unicode="&#xa9;" horiz-adv-x="1699" d="M115 616q0 53 8 109q20 154 98 288t193.5 235.5t258 159.5t296.5 58t279.5 -58t212.5 -159.5t126 -236.5q25 -86 25 -183q0 -51 -6 -104q-23 -154 -99.5 -288t-192.5 -235.5t-258.5 -159.5t-295.5 -58q-154 0 -280 58t-213 159.5t-128 236.5q-25 84 -24 178zM186 631 q0 -88 23 -168q35 -123 113.5 -214t193.5 -143.5t254 -52.5t269 52.5t234.5 143.5t174.5 214t88 262q8 51 8 98q0 86 -24 164q-35 123 -113 214t-193.5 143.5t-255.5 52.5q-139 0 -269 -52.5t-233.5 -143.5t-173 -214t-89.5 -262q-7 -49 -7 -94zM459 520q0 25 4 51l43 310 q12 82 53 142t100.5 100t130 60.5t142.5 20.5q100 0 186 -38t125 -117l-63 -39q-35 61 -104.5 90.5t-153.5 29.5q-57 0 -114.5 -14t-105 -45t-81 -77t-41.5 -109l-43 -314q-4 -23 -5 -41q0 -41 15 -71q20 -47 59 -78t92.5 -45t110.5 -14q92 0 179 38.5t132 116.5l64 -33 q-59 -96 -166 -146t-219 -50q-70 0 -137 20q-66 20 -114 60.5t-73 101.5q-16 39 -16 90z" />
<glyph unicode="&#xaa;" horiz-adv-x="768" d="M158 956q0 20 4 41q8 57 36.5 98.5t69.5 68t90.5 37.5t100.5 11q39 0 84 -9t86 -27l12 90q2 12 2 22q0 55 -43 82q-51 33 -123 33q-45 0 -95 -16.5t-91 -51.5l-43 45q53 47 116.5 70t124.5 23q47 0 91.5 -13.5t76 -39t48.5 -64.5q10 -27 10 -60q0 -16 -2 -34l-66 -459 q-78 -23 -145 -31q-53 -6 -109 -6h-28q-49 0 -90.5 16.5t-69 47t-39.5 71.5q-8 27 -8 55zM231 967q0 -55 33 -93q41 -45 113 -47q47 0 98 5.5t109 15.5l37 264q-39 14 -85.5 23.5t-91.5 9.5q-37 0 -71.5 -6t-63 -22.5t-49 -45.5t-27.5 -74q-2 -16 -2 -30z" />
<glyph unicode="&#xab;" horiz-adv-x="790" d="M86 604l317 389q16 -10 29.5 -20t28.5 -21l-289 -348q43 -84 93 -174t95 -174q-23 -12 -35 -20.5t-32 -18.5zM340 604l317 389q16 -10 29.5 -20t28.5 -21l-289 -348q43 -84 93 -174t95 -174q-23 -12 -35 -20.5t-32 -18.5z" />
<glyph unicode="&#xac;" horiz-adv-x="1236" d="M156 725l10 72h936l-60 -428h-71l49 356h-864z" />
<glyph unicode="&#xad;" horiz-adv-x="688" d="M94 514l10 76h465l-10 -76h-465z" />
<glyph unicode="&#xae;" horiz-adv-x="1699" d="M115 616q0 53 8 109q20 154 98 288t193.5 235.5t258 159.5t296.5 58t279.5 -58t212.5 -159.5t126 -236.5q25 -86 25 -183q0 -51 -6 -104q-23 -154 -99.5 -288t-192.5 -235.5t-258.5 -159.5t-295.5 -58q-154 0 -280 58t-213 159.5t-128 236.5q-25 84 -24 178zM188 631 q0 -88 23 -168q35 -121 112.5 -212t192.5 -143.5t254 -52.5t268 52.5t233.5 143.5t174.5 213t88 261q8 51 8 98q0 86 -22 164q-37 121 -115 212t-192.5 143.5t-254.5 52.5q-139 0 -268 -52.5t-232.5 -143.5t-173 -213t-89.5 -261q-7 -49 -7 -94zM547 309l117 842h292 q139 0 203 -70q49 -57 49 -133q0 -18 -2 -37q-16 -113 -92 -175t-174 -79q47 -82 99.5 -172t103.5 -176h-82l-207 348h-188l-50 -348h-69zM674 723h162q49 0 99 6t91 26.5t70.5 57.5t38.5 98q2 14 2 27q0 31 -11 53q-14 35 -41.5 55.5t-65.5 29.5t-77 9h-217z" />
<glyph unicode="&#xaf;" horiz-adv-x="647" d="M131 1614l10 76h465l-10 -76h-465z" />
<glyph unicode="&#xb0;" horiz-adv-x="724" d="M188 1174q0 16 2 32q8 51 35 97.5t67 81t88 54t101 19.5q51 0 95.5 -19.5t74 -54t41.5 -81.5q10 -27 10 -58q0 -18 -4 -39q-6 -53 -32.5 -99t-66.5 -81t-89 -55.5t-100 -20.5q-53 0 -96.5 20.5t-73 55.5t-43.5 80q-8 33 -9 68zM254 1174q0 -23 6 -46q10 -35 31.5 -60.5 t54.5 -40.5t72 -15t75.5 15t65.5 41t48.5 60.5t25.5 75.5q2 14 2 29q0 25 -6 45q-10 37 -32 62.5t-54.5 41t-71.5 15.5t-76 -15.5t-65.5 -41t-48 -61.5t-25.5 -75q-2 -16 -2 -30z" />
<glyph unicode="&#xb1;" horiz-adv-x="1159" d="M104 215l11 70h839l-10 -70h-840zM178 801l10 71h385l54 367h71l-53 -367h399l-10 -71h-399l-51 -373h-72l51 373h-385z" />
<glyph unicode="&#xb2;" horiz-adv-x="835" d="M129 651l463 396q45 39 82 100q31 49 31 96q0 10 -3 21q-14 45 -47.5 71.5t-76.5 36.5q-31 6 -62 6q-16 0 -33 -2q-49 -4 -94 -20q-35 -14 -59.5 -30.5t-46.5 -45.5l-56 27q29 39 72 69q43 31 82 47q55 18 119 23h24q49 0 92 -12q55 -14 97.5 -49t58.5 -97q4 -23 4 -45 q0 -55 -28 -110q-41 -78 -109 -132l-399 -335h456l-8 -64h-547z" />
<glyph unicode="&#xb3;" horiz-adv-x="800" d="M135 786l55 27q20 -55 80 -83t119 -32h21q37 0 77 11q53 14 99 47q33 23 49 52.5t22 68.5q2 16 2 30q0 29 -8 51q-10 33 -34.5 54.5t-59.5 31.5q-31 6 -63 7h-15h-41l6 51h41q31 0 71 14t69 37q47 41 51 98q2 8 2 17q0 47 -25 82q-25 33 -64.5 48t-84.5 15 q-59 0 -117.5 -22.5t-95.5 -73.5l-45 26q23 33 54.5 56.5t66 39t69.5 22.5t66 9h18q49 0 94 -16q55 -20 88 -61q25 -31 35 -70q4 -23 4 -47q0 -16 -2 -33q-6 -41 -28.5 -79t-61.5 -64l-33 -17q55 -18 82 -67t27 -106.5t-27.5 -114t-79.5 -90.5q-51 -39 -116 -58 q-53 -12 -103 -12h-22q-39 2 -77 12t-70.5 28.5t-57.5 46.5t-37 64z" />
<glyph unicode="&#xb4;" horiz-adv-x="450" d="M203 1567l159 227h99l-178 -227h-80z" />
<glyph unicode="&#xb5;" horiz-adv-x="1060" d="M-2 -446l211 1509h78l-94 -674q-6 -41 -6 -82q0 -14 2 -31q2 -57 23.5 -104t67.5 -76.5t126 -29.5q74 0 140.5 24.5t120.5 75.5t92 128t52 179l82 590h78l-141 -1063h-74l24 211q-31 -51 -73.5 -91t-94 -67.5t-106.5 -42t-111 -14.5q-86 0 -145 29.5t-94 111.5l-82 -583 h-76z" />
<glyph unicode="&#xb6;" horiz-adv-x="1136" d="M109 954q0 29 4 58q12 82 52 160.5t108.5 140t163.5 99.5t216 38h445l-238 -1688h-67l229 1633h-307l-230 -1633h-69l116 824q-117 0 -200.5 36.5t-136 96t-72.5 137.5q-14 47 -14 98z" />
<glyph unicode="&#xb7;" horiz-adv-x="430" d="M137 632v11q4 33 31 55.5t60 22.5t51 -23q14 -18 14 -43v-12q-4 -33 -29.5 -55.5t-58.5 -22.5t-53 22q-14 18 -15 45z" />
<glyph unicode="&#xb8;" horiz-adv-x="499" d="M10 -375l21 58q35 -23 69.5 -36.5t75.5 -13.5t79 15.5t56 64.5q12 37 1 58.5t-33.5 32t-52 9.5t-54.5 -8l-10 17l114 198h62l-86 -153q78 0 117 -43q26 -27 26 -68q0 -20 -8 -47q-27 -78 -85 -107.5t-124 -29.5q-57 0 -97 15.5t-71 37.5z" />
<glyph unicode="&#xb9;" horiz-adv-x="489" d="M156 1237l221 215h74l-117 -827h-70l105 735l-164 -164z" />
<glyph unicode="&#xba;" horiz-adv-x="837" d="M174 963q0 16 2 34l35 238q8 59 40 103t77 74t100 44t109 14q53 0 103 -14t88 -44t58 -73q12 -33 13 -69q0 -16 -2 -35l-35 -238q-8 -59 -40 -103t-78 -73.5t-100.5 -44t-107.5 -14.5t-104 14.5t-88 44t-56 72.5q-14 33 -14 70zM246 975q0 -31 10 -53q14 -33 44 -53.5 t68 -30t78 -9.5q39 0 81 9.5t77 30t59.5 53t30.5 82.5l31 225q2 14 2 28q0 31 -10 54q-14 33 -44 53t-69 29.5t-78 9.5q-41 0 -82 -9.5t-75.5 -30t-59 -53t-30.5 -81.5l-31 -225q-2 -15 -2 -29z" />
<glyph unicode="&#xbb;" horiz-adv-x="784" d="M68 256l288 348q-43 84 -93 174t-95 174q23 12 35 20.5t33 18.5l206 -387l-317 -389q-16 10 -29.5 20.5t-27.5 20.5zM318 256l288 348q-43 84 -93 174t-95 174q23 12 35 20.5t33 18.5l206 -387l-317 -389q-16 10 -29.5 20.5t-27.5 20.5z" />
<glyph unicode="&#xbc;" horiz-adv-x="1370" d="M80 -6l1122 1497q16 -10 26.5 -18.5t24.5 -18.5l-1122 -1495zM147 1237l222 215h73l-116 -827h-70l104 735l-163 -164zM631 270l524 566h94l-80 -572h68l-8 -57h-68l-28 -207h-66l29 207h-432zM702 264h402l78 514z" />
<glyph unicode="&#xbd;" horiz-adv-x="1509" d="M84 -6l1122 1497q16 -10 26.5 -18.5t24.5 -18.5l-1122 -1495zM145 1237l222 215h73l-116 -827h-70l104 735l-163 -164zM772 49q117 96 233.5 204.5t231.5 205.5q74 61 94 110q15 35 15 72q0 18 -5 37q-18 59 -65 88q-45 27 -100 27q-2 0 -5 -2q-59 0 -117.5 -27 t-97.5 -74l-61 29q27 39 68 69q45 31 86 48q53 20 110 24h21q47 0 90 -12q53 -16 92 -52t55 -96q4 -23 4 -45q0 -55 -28 -110q-41 -78 -109 -131l-393 -346h448l-8 -68h-547z" />
<glyph unicode="&#xbe;" horiz-adv-x="1488" d="M100 786l56 27q20 -55 79.5 -83t118.5 -32h21q37 0 78 11q53 14 98 47q33 23 49 52.5t23 68.5q2 16 2 30q0 29 -7 51q-12 33 -36.5 54.5t-61.5 31.5q-29 6 -61 7h-15h-41l7 51h41q31 0 70.5 14t68.5 37q47 41 53 98v17q0 47 -25 82q-25 33 -64.5 48t-84.5 15 q-59 0 -117.5 -22.5t-95.5 -73.5l-45 26q23 33 54.5 56.5t66.5 39t69.5 22.5t65.5 9h18q47 0 95 -16q55 -20 88 -61q25 -31 32 -70q6 -23 7 -47q0 -16 -2 -33q-6 -41 -29 -79t-62 -64l-32 -17q55 -18 81.5 -67t26.5 -106.5t-27.5 -114t-78.5 -90.5q-51 -39 -117 -58 q-53 -12 -102 -12h-23q-39 2 -77 12t-70.5 28.5t-57 46.5t-37.5 64zM250 -6l1122 1497q16 -10 26.5 -18.5t24.5 -18.5l-1122 -1495zM743 270l525 566h94l-80 -572h68l-9 -57h-67l-29 -207h-65l28 207h-432zM815 264h402l77 514z" />
<glyph unicode="&#xbf;" horiz-adv-x="919" d="M-18 -61q0 31 4 65q14 96 59 170t110.5 127t145.5 86t164 47q6 39 16.5 90t19.5 105.5t19 105.5t17 92h59l-51 -458q-86 -4 -168 -30t-148.5 -73t-111.5 -113.5t-56 -150.5q-4 -25 -4 -47q0 -51 19 -94q23 -59 68.5 -99.5t108 -60.5t132.5 -20q80 0 171 37.5t155 91.5 l39 -50q-78 -78 -176.5 -116.5t-204.5 -38.5q-84 0 -160 25.5t-130 75.5t-81 126q-16 47 -16 107zM514 993q4 33 28.5 54.5t55.5 21.5q33 0 52.5 -21.5t15.5 -54.5t-31 -55.5t-60 -22.5q-31 0 -48 23t-13 55z" />
<glyph unicode="&#xc0;" horiz-adv-x="1226" d="M-66 0l738 1450h116l326 -1450h-86l-113 504h-649l-246 -504h-86zM307 584h594l-180 807zM573 1794h99l125 -227h-76z" />
<glyph unicode="&#xc1;" horiz-adv-x="1226" d="M-66 0l738 1450h116l326 -1450h-86l-113 504h-649l-246 -504h-86zM307 584h594l-180 807zM639 1567l159 227h99l-178 -227h-80z" />
<glyph unicode="&#xc2;" horiz-adv-x="1226" d="M-66 0l738 1450h116l326 -1450h-86l-113 504h-649l-246 -504h-86zM307 584h594l-180 807zM465 1567l279 227h76l196 -227h-102l-137 162l-197 -162h-115z" />
<glyph unicode="&#xc3;" horiz-adv-x="1226" d="M-66 0l738 1450h116l326 -1450h-86l-113 504h-649l-246 -504h-86zM307 584h594l-180 807zM485 1616q14 76 61.5 119t106.5 43q45 0 76.5 -20.5t57.5 -45t49.5 -45t53.5 -20.5q41 0 68 28.5t43 79.5l55 -14q-12 -68 -57 -116t-111 -48q-43 0 -71.5 21.5t-54 47t-52.5 46.5 q-25 18 -57 18h-6q-35 -2 -63.5 -29.5t-45.5 -81.5z" />
<glyph unicode="&#xc4;" horiz-adv-x="1226" d="M-66 0l738 1450h116l326 -1450h-86l-113 504h-649l-246 -504h-86zM307 584h594l-180 807zM518 1681q4 27 24.5 44.5t45.5 17.5q27 0 42 -17.5t11 -44.5q-4 -25 -23.5 -43t-46.5 -18q-25 0 -41 18.5t-12 42.5zM877 1681q4 27 23 44.5t46 17.5q25 0 41.5 -17.5t11.5 -44.5 q-4 -25 -24.5 -43t-44.5 -18q-27 0 -42.5 18.5t-10.5 42.5z" />
<glyph unicode="&#xc5;" horiz-adv-x="1226" d="M-66 0l723 1423q-41 16 -59 56q-14 28 -14 65q0 14 2 31q10 76 62 121t126 45t111 -45q31 -35 30 -90q0 -14 -2 -31q-8 -57 -39.5 -97t-78.5 -57l319 -1421h-86l-113 504h-649l-246 -504h-86zM307 584h594l-180 807zM643 1550q0 -33 16 -55q25 -31 72 -31t81 31t42 80 q2 10 2 20q0 35 -20 60q-23 31 -70 31t-81 -31t-40 -80q-2 -13 -2 -25z" />
<glyph unicode="&#xc6;" horiz-adv-x="1599" d="M-82 -2l934 1452h764l-10 -76h-623l-88 -631h559l-12 -77h-559l-82 -592h622l-10 -74h-698l69 504h-450l-328 -506h-88zM381 580h414l112 802l-16 2z" />
<glyph unicode="&#xc7;" horiz-adv-x="1202" d="M106 340q0 29 5 59l90 648q14 104 71.5 182t139.5 131t180 79.5t196 26.5q72 0 140.5 -13t127 -42t102.5 -72t67 -102l-76 -37q-43 92 -148.5 139t-228.5 47q-82 0 -165 -21.5t-151.5 -63t-115.5 -105t-59 -149.5l-91 -648q-4 -25 -4 -49q0 -55 23 -100q29 -63 85 -105.5 t133 -64t159 -21.5q123 0 241.5 47.5t190.5 139.5l63 -35q-70 -104 -189.5 -160.5t-248.5 -66.5l-65 -117q78 0 118 -43q25 -27 25 -68q0 -20 -8 -47q-27 -78 -85.5 -107.5t-123.5 -29.5q-57 0 -97 15.5t-71 37.5l20 58q35 -23 70 -36.5t76 -13.5t78.5 15.5t56.5 64.5 q12 37 1 58.5t-33.5 32t-52.5 9.5t-54 -8l-11 17l91 158h-5q-96 0 -186 26.5t-156.5 78.5t-99.5 132q-25 55 -25 123z" />
<glyph unicode="&#xc8;" horiz-adv-x="1153" d="M90 0l203 1450h876l-10 -80h-797l-86 -604h736l-13 -82h-735l-84 -604h797l-10 -80h-877zM585 1794h99l125 -227h-76z" />
<glyph unicode="&#xc9;" horiz-adv-x="1153" d="M90 0l203 1450h876l-10 -80h-797l-86 -604h736l-13 -82h-735l-84 -604h797l-10 -80h-877zM652 1567l159 227h99l-178 -227h-80z" />
<glyph unicode="&#xca;" horiz-adv-x="1153" d="M90 0l203 1450h876l-10 -80h-797l-86 -604h736l-13 -82h-735l-84 -604h797l-10 -80h-877zM477 1567l279 227h76l196 -227h-102l-137 162l-197 -162h-115z" />
<glyph unicode="&#xcb;" horiz-adv-x="1153" d="M90 0l203 1450h876l-10 -80h-797l-86 -604h736l-13 -82h-735l-84 -604h797l-10 -80h-877zM530 1681q4 27 24.5 44.5t45.5 17.5q27 0 42 -17.5t11 -44.5q-4 -25 -23.5 -43t-45.5 -18q-25 0 -41.5 18.5t-12.5 42.5zM889 1681q4 27 23 44.5t46 17.5q25 0 41.5 -17.5 t12.5 -44.5q-4 -25 -24.5 -43t-45.5 -18q-27 0 -42 18.5t-11 42.5z" />
<glyph unicode="&#xcc;" horiz-adv-x="436" d="M90 0l203 1448h80l-203 -1448h-80zM200 1794h99l125 -227h-76z" />
<glyph unicode="&#xcd;" horiz-adv-x="436" d="M90 0l203 1448h80l-203 -1448h-80zM266 1567l159 227h99l-178 -227h-80z" />
<glyph unicode="&#xce;" horiz-adv-x="436" d="M90 0l203 1448h80l-203 -1448h-80zM92 1567l279 227h76l196 -227h-102l-137 162l-197 -162h-115z" />
<glyph unicode="&#xcf;" horiz-adv-x="436" d="M90 0l203 1448h80l-203 -1448h-80zM162 1681q4 27 24 44.5t45 17.5q27 0 42.5 -17.5t11.5 -44.5q-4 -25 -23.5 -43t-46.5 -18q-25 0 -41 18.5t-12 42.5zM453 1663q0 35 26 59q24 21 53 21t46 -21q14 -16 14 -39v-10q-4 -29 -26.5 -49t-51.5 -20t-47 20q-14 16 -14 39z " />
<glyph unicode="&#xd0;" horiz-adv-x="1306" d="M63 686l9 66h129l98 698h463q98 0 188 -26.5t155.5 -79t98.5 -132.5q25 -55 25 -125q0 -31 -4 -61l-86 -604q-14 -106 -70.5 -185t-137.5 -131.5t-178.5 -79t-195.5 -26.5h-463l99 686h-130zM186 80h383q82 0 165 21.5t151.5 63.5t115 106.5t58.5 150.5l86 604q4 27 4 49 q0 55 -21 101q-29 66 -85 108.5t-132.5 64t-158.5 21.5h-383l-88 -618h256l-9 -66h-256z" />
<glyph unicode="&#xd1;" horiz-adv-x="1376" d="M90 0l203 1450h100l649 -1350l191 1350h80l-203 -1450h-117l-637 1327l-186 -1327h-80zM578 1616q14 76 61.5 119t106.5 43q45 0 76.5 -20.5t57.5 -45t49.5 -45t53.5 -20.5q41 0 68 28.5t43 79.5l55 -14q-12 -68 -57 -116t-111 -48q-43 0 -71.5 21.5t-54 47t-52.5 46.5 q-25 18 -57 18h-6q-35 -2 -63.5 -29.5t-45.5 -81.5z" />
<glyph unicode="&#xd2;" horiz-adv-x="1390" d="M104 346q0 29 5 60l90 641q14 106 72.5 185t144.5 132t188.5 79.5t206.5 26.5t199.5 -26.5t166 -79.5t107.5 -131q27 -57 27 -129q0 -27 -4 -57l-90 -641q-14 -106 -74 -186.5t-145 -133.5t-188 -79.5t-208 -26.5q-104 0 -199.5 26.5t-166 79.5t-105.5 133 q-27 57 -27 127zM184 358q0 -57 25 -104q31 -66 90 -109t141 -64.5t172 -21.5q88 0 177.5 21.5t162 64.5t122.5 108.5t63 152.5l90 641q4 27 4 49q0 61 -23 108q-33 66 -94 108t-144 61.5t-171 19.5t-176 -20.5t-160 -63.5t-122 -107.5t-62 -154.5l-91 -641q-4 -25 -4 -48z M677 1794h99l125 -227h-76z" />
<glyph unicode="&#xd3;" horiz-adv-x="1390" d="M104 346q0 29 5 60l90 641q14 106 72.5 185t144.5 132t188.5 79.5t206.5 26.5t199.5 -26.5t166 -79.5t107.5 -131q27 -57 27 -129q0 -27 -4 -57l-90 -641q-14 -106 -74 -186.5t-145 -133.5t-188 -79.5t-208 -26.5q-104 0 -199.5 26.5t-166 79.5t-105.5 133 q-27 57 -27 127zM184 358q0 -57 25 -104q31 -66 90 -109t141 -64.5t172 -21.5q88 0 177.5 21.5t162 64.5t122.5 108.5t63 152.5l90 641q4 27 4 49q0 61 -23 108q-33 66 -94 108t-144 61.5t-171 19.5t-176 -20.5t-160 -63.5t-122 -107.5t-62 -154.5l-91 -641q-4 -25 -4 -48z M744 1567l159 227h99l-178 -227h-80z" />
<glyph unicode="&#xd4;" horiz-adv-x="1390" d="M104 346q0 29 5 60l90 641q14 106 72.5 185t144.5 132t188.5 79.5t206.5 26.5t199.5 -26.5t166 -79.5t107.5 -131q27 -57 27 -129q0 -27 -4 -57l-90 -641q-14 -106 -74 -186.5t-145 -133.5t-188 -79.5t-208 -26.5q-104 0 -199.5 26.5t-166 79.5t-105.5 133 q-27 57 -27 127zM184 358q0 -57 25 -104q31 -66 90 -109t141 -64.5t172 -21.5q88 0 177.5 21.5t162 64.5t122.5 108.5t63 152.5l90 641q4 27 4 49q0 61 -23 108q-33 66 -94 108t-144 61.5t-171 19.5t-176 -20.5t-160 -63.5t-122 -107.5t-62 -154.5l-91 -641q-4 -25 -4 -48z M569 1567l279 227h76l196 -227h-102l-137 162l-197 -162h-115z" />
<glyph unicode="&#xd5;" horiz-adv-x="1390" d="M104 346q0 29 5 60l90 641q14 106 72.5 185t144.5 132t188.5 79.5t206.5 26.5t199.5 -26.5t166 -79.5t107.5 -131q27 -57 27 -129q0 -27 -4 -57l-90 -641q-14 -106 -74 -186.5t-145 -133.5t-188 -79.5t-208 -26.5q-104 0 -199.5 26.5t-166 79.5t-105.5 133 q-27 57 -27 127zM184 358q0 -57 25 -104q31 -66 90 -109t141 -64.5t172 -21.5q88 0 177.5 21.5t162 64.5t122.5 108.5t63 152.5l90 641q4 27 4 49q0 61 -23 108q-33 66 -94 108t-144 61.5t-171 19.5t-176 -20.5t-160 -63.5t-122 -107.5t-62 -154.5l-91 -641q-4 -25 -4 -48z M590 1616q14 76 61.5 119t106.5 43q45 0 76.5 -20.5t57.5 -45t49.5 -45t53.5 -20.5q41 0 68 28.5t43 79.5l55 -14q-12 -68 -57 -116t-111 -48q-43 0 -71.5 21.5t-54 47t-52.5 46.5q-25 18 -57 18h-6q-35 -2 -63.5 -29.5t-45.5 -81.5z" />
<glyph unicode="&#xd6;" horiz-adv-x="1390" d="M104 346q0 29 5 60l90 641q14 106 72.5 185t144.5 132t188.5 79.5t206.5 26.5t199.5 -26.5t166 -79.5t107.5 -131q27 -57 27 -129q0 -27 -4 -57l-90 -641q-14 -106 -74 -186.5t-145 -133.5t-188 -79.5t-208 -26.5q-104 0 -199.5 26.5t-166 79.5t-105.5 133 q-27 57 -27 127zM184 358q0 -57 25 -104q31 -66 90 -109t141 -64.5t172 -21.5q88 0 177.5 21.5t162 64.5t122.5 108.5t63 152.5l90 641q4 27 4 49q0 61 -23 108q-33 66 -94 108t-144 61.5t-171 19.5t-176 -20.5t-160 -63.5t-122 -107.5t-62 -154.5l-91 -641q-4 -25 -4 -48z M623 1681q4 27 24 44.5t45 17.5q27 0 42.5 -17.5t10.5 -44.5q-4 -25 -23.5 -43t-45.5 -18q-25 0 -41.5 18.5t-11.5 42.5zM981 1681q4 27 23.5 44.5t46.5 17.5q25 0 41 -17.5t12 -44.5q-4 -25 -24.5 -43t-45.5 -18q-27 0 -42 18.5t-11 42.5z" />
<glyph unicode="&#xd7;" horiz-adv-x="1011" d="M86 362l375 328l-287 336l64 53l286 -334l371 326l47 -53l-373 -326l277 -321l-62 -56l-276 322l-375 -330z" />
<glyph unicode="&#xd8;" horiz-adv-x="1388" d="M104 352q0 27 5 56l90 636q14 106 73.5 185.5t144.5 132.5t187.5 79.5t206.5 26.5q115 0 240 -38l82 145l61 -23l-82 -149q98 -53 156 -143q43 -68 43 -156q0 -29 -4 -60l-90 -636q-14 -106 -74 -186.5t-145 -133.5t-188 -79.5t-208 -26.5q-53 0 -112.5 10t-118.5 28 l-80 -151l-66 20l84 158q-102 55 -159 146q-45 68 -46 159zM186 367q0 -74 35 -129q45 -72 127 -121l662 1243q-109 31 -211 31q-88 0 -176 -20.5t-160 -63.5t-122 -107.5t-62 -155.5l-91 -636q-2 -21 -2 -41zM412 92q100 -31 202 -31q88 0 176.5 21.5t161 64.5t122.5 109 t63 152l90 636q4 25 4 48q0 70 -35 122q-43 72 -123 119z" />
<glyph unicode="&#xd9;" horiz-adv-x="1384" d="M133 344q0 33 6 68l146 1038h80l-146 -1038q-4 -27 -4 -52q0 -57 21 -102q29 -66 85 -110t131.5 -65.5t159.5 -21.5q82 0 165 21.5t152.5 66t117 110t59.5 153.5l145 1038h80l-145 -1038q-16 -109 -71.5 -190t-137.5 -134t-179.5 -80.5t-195.5 -27.5t-188 27.5t-157 80.5 t-101 133q-23 55 -23 123zM663 1794h99l125 -227h-76z" />
<glyph unicode="&#xda;" horiz-adv-x="1384" d="M133 344q0 33 6 68l146 1038h80l-146 -1038q-4 -27 -4 -52q0 -57 21 -102q29 -66 85 -110t131.5 -65.5t159.5 -21.5q82 0 165 21.5t152.5 66t117 110t59.5 153.5l145 1038h80l-145 -1038q-16 -109 -71.5 -190t-137.5 -134t-179.5 -80.5t-195.5 -27.5t-188 27.5t-157 80.5 t-101 133q-23 55 -23 123zM729 1567l159 227h99l-178 -227h-80z" />
<glyph unicode="&#xdb;" horiz-adv-x="1384" d="M133 344q0 33 6 68l146 1038h80l-146 -1038q-4 -27 -4 -52q0 -57 21 -102q29 -66 85 -110t131.5 -65.5t159.5 -21.5q82 0 165 21.5t152.5 66t117 110t59.5 153.5l145 1038h80l-145 -1038q-16 -109 -71.5 -190t-137.5 -134t-179.5 -80.5t-195.5 -27.5t-188 27.5t-157 80.5 t-101 133q-23 55 -23 123zM555 1567l279 227h76l196 -227h-102l-137 162l-197 -162h-115z" />
<glyph unicode="&#xdc;" horiz-adv-x="1384" d="M133 344q0 33 6 68l146 1038h80l-146 -1038q-4 -27 -4 -52q0 -57 21 -102q29 -66 85 -110t131.5 -65.5t159.5 -21.5q82 0 165 21.5t152.5 66t117 110t59.5 153.5l145 1038h80l-145 -1038q-16 -109 -71.5 -190t-137.5 -134t-179.5 -80.5t-195.5 -27.5t-188 27.5t-157 80.5 t-101 133q-23 55 -23 123zM608 1681q4 27 24.5 44.5t45.5 17.5q27 0 42 -17.5t11 -44.5q-4 -25 -23.5 -43t-45.5 -18q-25 0 -41.5 18.5t-12.5 42.5zM967 1681q4 27 23 44.5t46 17.5q25 0 41.5 -17.5t12.5 -44.5q-4 -25 -25 -43t-45 -18q-27 0 -42 18.5t-11 42.5z" />
<glyph unicode="&#xdd;" horiz-adv-x="1097" d="M137 1448h92l324 -803l547 803h94l-612 -875l-80 -573h-80l80 573zM574 1567l159 227h99l-178 -227h-80z" />
<glyph unicode="&#xde;" horiz-adv-x="1239" d="M90 2l203 1448h80l-33 -229h446q152 0 245 -65.5t132 -164.5q27 -70 27 -147q0 -33 -6 -66q-14 -115 -79 -213t-176.5 -164.5t-264.5 -66.5h-449l-45 -332h-80zM227 414h447q129 0 220 54t143.5 135t64.5 175q2 25 2 49q0 68 -23 127q-31 80 -106.5 133.5t-198.5 53.5 h-446z" />
<glyph unicode="&#xdf;" horiz-adv-x="1193" d="M68 0l155 1100q12 90 57.5 158.5t112 115.5t148.5 71.5t172 24.5q82 0 157.5 -22.5t131 -66.5t83.5 -111q18 -47 19 -105q0 -25 -4 -53q-12 -94 -70.5 -183t-173.5 -149q70 -25 115 -64.5t69.5 -86.5t30.5 -101q2 -25 2 -47q0 -33 -4 -63q-16 -106 -72.5 -188.5 t-137.5 -138.5t-179 -85q-90 -27 -178 -26h-13q-51 2 -112.5 18t-106.5 37l15 84q20 -8 47.5 -18.5t56.5 -18.5t57.5 -14.5t51.5 -6.5h12q76 0 152 21q82 25 149.5 71t115.5 113.5t60 153.5q4 31 4 57q0 45 -12 84q-20 61 -66.5 101t-114 59.5t-149.5 19.5h-213l10 74h213 q63 0 125 18.5t111 56.5t82 93t43 129q4 25 4 45q0 49 -16 88q-25 53 -71 87t-107.5 49.5t-127.5 15.5t-132 -17.5t-122.5 -53.5t-96.5 -92t-50 -134l-156 -1100h-77z" />
<glyph unicode="&#xe0;" horiz-adv-x="1050" d="M82 244q0 25 4 53l64 455q12 92 56 155.5t106.5 101.5t139 54t154.5 16q98 0 187.5 -17.5t156.5 -49.5l-141 -1012h-70l15 113q-72 -70 -160 -101.5t-180 -31.5q-68 0 -131.5 17t-111.5 56t-73 99q-16 41 -16 92zM154 252q0 -39 14 -70q18 -47 57 -77.5t91.5 -44 t109.5 -13.5q92 0 182 39t156 104l106 768q-51 27 -120.5 40.5t-143.5 13.5q-66 0 -130 -13.5t-117.5 -44t-90.5 -80t-47 -120.5l-63 -457q-4 -23 -4 -45zM493 1425h99l125 -227h-76z" />
<glyph unicode="&#xe1;" horiz-adv-x="1050" d="M82 244q0 25 4 53l64 455q12 92 56 155.5t106.5 101.5t139 54t154.5 16q98 0 187.5 -17.5t156.5 -49.5l-141 -1012h-70l15 113q-72 -70 -160 -101.5t-180 -31.5q-68 0 -131.5 17t-111.5 56t-73 99q-16 41 -16 92zM154 252q0 -39 14 -70q18 -47 57 -77.5t91.5 -44 t109.5 -13.5q92 0 182 39t156 104l106 768q-51 27 -120.5 40.5t-143.5 13.5q-66 0 -130 -13.5t-117.5 -44t-90.5 -80t-47 -120.5l-63 -457q-4 -23 -4 -45zM559 1198l159 227h99l-178 -227h-80z" />
<glyph unicode="&#xe2;" horiz-adv-x="1050" d="M82 244q0 25 4 53l64 455q12 92 56 155.5t106.5 101.5t139 54t154.5 16q98 0 187.5 -17.5t156.5 -49.5l-141 -1012h-70l15 113q-72 -70 -160 -101.5t-180 -31.5q-68 0 -131.5 17t-111.5 56t-73 99q-16 41 -16 92zM154 252q0 -39 14 -70q18 -47 57 -77.5t91.5 -44 t109.5 -13.5q92 0 182 39t156 104l106 768q-51 27 -120.5 40.5t-143.5 13.5q-66 0 -130 -13.5t-117.5 -44t-90.5 -80t-47 -120.5l-63 -457q-4 -23 -4 -45zM385 1198l279 227h76l196 -227h-102l-137 162l-197 -162h-115z" />
<glyph unicode="&#xe3;" horiz-adv-x="1050" d="M82 244q0 25 4 53l64 455q12 92 56 155.5t106.5 101.5t139 54t154.5 16q98 0 187.5 -17.5t156.5 -49.5l-141 -1012h-70l15 113q-72 -70 -160 -101.5t-180 -31.5q-68 0 -131.5 17t-111.5 56t-73 99q-16 41 -16 92zM154 252q0 -39 14 -70q18 -47 57 -77.5t91.5 -44 t109.5 -13.5q92 0 182 39t156 104l106 768q-51 27 -120.5 40.5t-143.5 13.5q-66 0 -130 -13.5t-117.5 -44t-90.5 -80t-47 -120.5l-63 -457q-4 -23 -4 -45zM406 1247q14 76 61.5 119t106.5 43q45 0 76.5 -20.5t57.5 -45t49.5 -45t53.5 -20.5q41 0 68 28.5t43 79.5l55 -14 q-12 -68 -57 -116t-111 -48q-43 0 -71.5 21.5t-54 47t-52.5 46.5q-25 18 -57 18h-6q-35 -2 -63.5 -29.5t-45.5 -81.5z" />
<glyph unicode="&#xe4;" horiz-adv-x="1050" d="M82 244q0 25 4 53l64 455q12 92 56 155.5t106.5 101.5t139 54t154.5 16q98 0 187.5 -17.5t156.5 -49.5l-141 -1012h-70l15 113q-72 -70 -160 -101.5t-180 -31.5q-68 0 -131.5 17t-111.5 56t-73 99q-16 41 -16 92zM154 252q0 -39 14 -70q18 -47 57 -77.5t91.5 -44 t109.5 -13.5q92 0 182 39t156 104l106 768q-51 27 -120.5 40.5t-143.5 13.5q-66 0 -130 -13.5t-117.5 -44t-90.5 -80t-47 -120.5l-63 -457q-4 -23 -4 -45zM438 1313q4 27 24.5 44t45.5 17q27 0 42 -17.5t11 -43.5q-4 -25 -23.5 -43.5t-45.5 -18.5q-25 0 -41.5 18.5 t-12.5 43.5zM797 1313q4 27 23 44t46 17q25 0 41.5 -17.5t12.5 -43.5q-4 -25 -25 -43.5t-45 -18.5q-27 0 -42 18.5t-11 43.5z" />
<glyph unicode="&#xe5;" horiz-adv-x="1050" d="M82 244q0 25 4 53l64 455q12 92 56 155.5t106.5 101.5t139 54t154.5 16q98 0 187.5 -17.5t156.5 -49.5l-141 -1012h-70l15 113q-72 -70 -160 -101.5t-180 -31.5q-68 0 -131.5 17t-111.5 56t-73 99q-16 41 -16 92zM154 252q0 -39 14 -70q18 -47 57 -77.5t91.5 -44 t109.5 -13.5q92 0 182 39t156 104l106 768q-51 27 -120.5 40.5t-143.5 13.5q-66 0 -130 -13.5t-117.5 -44t-90.5 -80t-47 -120.5l-63 -457q-4 -23 -4 -45zM520 1306q0 14 2 31q10 76 62.5 121t125.5 45q74 0 113 -45q29 -35 29 -90q0 -14 -2 -31q-10 -76 -61.5 -121 t-125.5 -45t-112 45q-31 35 -31 90zM579 1312q0 -33 19 -55q23 -31 69 -31q47 0 81 31t42 80q2 10 2 20q0 35 -18 60q-25 31 -72 31t-80.5 -31t-40.5 -80q-2 -12 -2 -25z" />
<glyph unicode="&#xe6;" horiz-adv-x="1673" d="M78 242q0 25 4 53l63 457q12 92 58.5 155.5t112 102.5t144.5 55t156 16q106 0 189.5 -25.5t161.5 -78.5q61 53 142 78.5t159 25.5q70 0 135 -19.5t112.5 -59t71.5 -101.5q16 -41 17 -90q0 -27 -5 -53q-12 -86 -53 -150.5t-101.5 -106.5t-133 -63.5t-146.5 -21.5 q-72 0 -147.5 16.5t-147.5 50.5l-26 -186q-4 -21 -4 -39q0 -37 16 -70q20 -47 61 -78.5t95.5 -47t109.5 -15.5q86 0 168 33t131 102l58 -30q-59 -84 -160.5 -128t-204.5 -44q-92 0 -171 33.5t-124 97.5l-12 -111h-72l19 121q-72 -70 -162 -107t-182 -37q-68 0 -131.5 17.5 t-111.5 56.5t-73 101q-16 39 -16 90zM150 250q0 -39 14 -70q18 -47 57 -77.5t91.5 -44t109.5 -13.5q92 0 183 44t157 110l78 544q16 113 75 185q-53 47 -140 67.5t-165 20.5q-66 0 -132 -14.5t-120.5 -45t-92.5 -81t-48 -121.5l-63 -459q-4 -23 -4 -45zM879 547 q61 -27 144 -46.5t161 -19.5q61 0 118.5 15.5t104.5 49.5t80 86t43 126q2 20 2 39q0 43 -12 77q-18 49 -57.5 81t-92.5 48.5t-110 16.5q-59 0 -118 -17.5t-108 -51t-82.5 -86t-44.5 -120.5z" />
<glyph unicode="&#xe7;" horiz-adv-x="929" d="M80 256q0 23 2 47l61 455q10 82 52.5 142.5t101.5 100t130 60t142 20.5q100 0 186.5 -37.5t125.5 -117.5l-64 -39q-35 61 -104.5 91t-153.5 30q-57 0 -114.5 -14.5t-105.5 -45t-81 -77t-41 -109.5l-61 -459q-2 -19 -2 -37q0 -43 14 -76q18 -47 57 -77.5t92.5 -45 t110.5 -14.5q92 0 179 39t132 117l64 -33q-49 -78 -132 -127t-177 -63l-64 -115q78 0 119 -43q25 -27 24 -68q0 -20 -8 -47q-27 -78 -85 -107.5t-124 -29.5q-57 0 -97 15.5t-71 37.5l21 58q35 -23 69.5 -36t75.5 -13t79 15t56 64q12 37 1 58.5t-33.5 32t-52 9.5t-54.5 -7 l-10 16l88 154h-10q-72 0 -136.5 20t-112.5 60t-73 100q-16 43 -16 96z" />
<glyph unicode="&#xe8;" horiz-adv-x="978" d="M80 250q0 25 4 51l61 449q12 84 53.5 146t100.5 103t131 61.5t143 20.5q70 0 135.5 -19.5t112.5 -59t72 -101.5q16 -41 16 -90q0 -27 -4 -53q-12 -86 -53 -150.5t-101.5 -106.5t-133 -63.5t-146.5 -21.5q-72 0 -146.5 16.5t-146.5 50.5l-26 -184q-5 -23 -5 -41 q0 -41 17 -74q20 -47 60 -77.5t94.5 -45t109.5 -14.5q86 0 169 33t132 102l55 -30q-59 -84 -160.5 -128t-203.5 -44q-72 0 -137.5 19t-113.5 59t-73 102q-16 39 -16 90zM186 547q61 -27 143 -46.5t160 -19.5q61 0 119 15.5t105 49.5t79.5 86t43.5 126q2 20 2 39q0 43 -13 75 q-18 49 -57 82t-92 48.5t-111 15.5q-59 0 -117.5 -16.5t-107.5 -49t-83 -83t-42 -117.5zM421 1425h99l125 -227h-76z" />
<glyph unicode="&#xe9;" horiz-adv-x="978" d="M80 250q0 25 4 51l61 449q12 84 53.5 146t100.5 103t131 61.5t143 20.5q70 0 135.5 -19.5t112.5 -59t72 -101.5q16 -41 16 -90q0 -27 -4 -53q-12 -86 -53 -150.5t-101.5 -106.5t-133 -63.5t-146.5 -21.5q-72 0 -146.5 16.5t-146.5 50.5l-26 -184q-5 -23 -5 -41 q0 -41 17 -74q20 -47 60 -77.5t94.5 -45t109.5 -14.5q86 0 169 33t132 102l55 -30q-59 -84 -160.5 -128t-203.5 -44q-72 0 -137.5 19t-113.5 59t-73 102q-16 39 -16 90zM186 547q61 -27 143 -46.5t160 -19.5q61 0 119 15.5t105 49.5t79.5 86t43.5 126q2 20 2 39q0 43 -13 75 q-18 49 -57 82t-92 48.5t-111 15.5q-59 0 -117.5 -16.5t-107.5 -49t-83 -83t-42 -117.5zM488 1198l159 227h99l-178 -227h-80z" />
<glyph unicode="&#xea;" horiz-adv-x="978" d="M80 250q0 25 4 51l61 449q12 84 53.5 146t100.5 103t131 61.5t143 20.5q70 0 135.5 -19.5t112.5 -59t72 -101.5q16 -41 16 -90q0 -27 -4 -53q-12 -86 -53 -150.5t-101.5 -106.5t-133 -63.5t-146.5 -21.5q-72 0 -146.5 16.5t-146.5 50.5l-26 -184q-5 -23 -5 -41 q0 -41 17 -74q20 -47 60 -77.5t94.5 -45t109.5 -14.5q86 0 169 33t132 102l55 -30q-59 -84 -160.5 -128t-203.5 -44q-72 0 -137.5 19t-113.5 59t-73 102q-16 39 -16 90zM186 547q61 -27 143 -46.5t160 -19.5q61 0 119 15.5t105 49.5t79.5 86t43.5 126q2 20 2 39q0 43 -13 75 q-18 49 -57 82t-92 48.5t-111 15.5q-59 0 -117.5 -16.5t-107.5 -49t-83 -83t-42 -117.5zM313 1198l279 227h76l196 -227h-102l-137 162l-197 -162h-115z" />
<glyph unicode="&#xeb;" horiz-adv-x="978" d="M80 250q0 25 4 51l61 449q12 84 53.5 146t100.5 103t131 61.5t143 20.5q70 0 135.5 -19.5t112.5 -59t72 -101.5q16 -41 16 -90q0 -27 -4 -53q-12 -86 -53 -150.5t-101.5 -106.5t-133 -63.5t-146.5 -21.5q-72 0 -146.5 16.5t-146.5 50.5l-26 -184q-5 -23 -5 -41 q0 -41 17 -74q20 -47 60 -77.5t94.5 -45t109.5 -14.5q86 0 169 33t132 102l55 -30q-59 -84 -160.5 -128t-203.5 -44q-72 0 -137.5 19t-113.5 59t-73 102q-16 39 -16 90zM186 547q61 -27 143 -46.5t160 -19.5q61 0 119 15.5t105 49.5t79.5 86t43.5 126q2 20 2 39q0 43 -13 75 q-18 49 -57 82t-92 48.5t-111 15.5q-59 0 -117.5 -16.5t-107.5 -49t-83 -83t-42 -117.5zM367 1313q4 27 24 44t45 17q27 0 42.5 -17.5t10.5 -43.5q-4 -25 -23.5 -43.5t-45.5 -18.5q-25 0 -41.5 18.5t-11.5 43.5zM725 1313q4 27 23.5 44t46.5 17q25 0 41 -17.5t12 -43.5 q-4 -25 -24.5 -43.5t-45.5 -18.5q-27 0 -42 18.5t-11 43.5z" />
<glyph unicode="&#xec;" horiz-adv-x="389" d="M70 0l147 1061h76l-148 -1061h-75zM122 1405h99l125 -227h-76z" />
<glyph unicode="&#xed;" horiz-adv-x="389" d="M70 0l147 1061h76l-148 -1061h-75zM189 1178l159 227h99l-178 -227h-80z" />
<glyph unicode="&#xee;" horiz-adv-x="389" d="M39 1178l256 227h78l170 -227h-99l-114 161l-180 -161h-111zM70 0l147 1061h76l-148 -1061h-75z" />
<glyph unicode="&#xef;" horiz-adv-x="389" d="M70 0l147 1061h76l-148 -1061h-75zM90 1292q4 27 24.5 44.5t45.5 17.5q27 0 42 -17.5t11 -44.5q-4 -25 -23.5 -43t-46.5 -18q-25 0 -41 18.5t-12 42.5zM377 1274q0 35 29 59q22 21 51 21t47 -21q12 -16 12 -39v-10q-4 -29 -26.5 -49.5t-51.5 -20.5t-47 21q-14 16 -14 39z " />
<glyph unicode="&#xf0;" horiz-adv-x="1034" d="M76 256q0 23 4 47l47 336q12 78 53 138.5t99.5 102.5t129 62.5t142.5 20.5t144.5 -15.5t150.5 -56.5l35 248q2 18 2 35q0 68 -41 114q-51 57 -131 86l-76 -166l-53 21l71 157q-39 4 -71 5q-63 0 -115 -15q-76 -23 -143 -84l-41 45q78 74 184 103q67 18 137 18q39 0 78 -6 l63 133q16 -6 29.5 -10t26.5 -8l-60 -127q102 -33 164 -107q51 -59 51 -145q0 -25 -4 -49l-155 -1098l-103 -31q-74 -20 -146.5 -24t-144.5 -4q-70 0 -133 21.5t-109 61t-69 99.5q-16 41 -16 92zM150 266q0 -41 12 -73q18 -47 56 -78t89 -46.5t109 -15.5q86 0 174 14.5 t145 36.5l101 713q-149 70 -301 70q-55 0 -111.5 -15.5t-104 -46t-80 -77t-40.5 -107.5l-47 -338q-2 -20 -2 -37z" />
<glyph unicode="&#xf1;" d="M66 0l141 1004q96 33 196.5 55t200.5 22q70 -2 134.5 -22.5t111.5 -60.5t72 -101q14 -39 14 -86q0 -27 -4 -53l-107 -758h-73l106 758q2 18 2 37q0 41 -12 73q-20 47 -58 78t-89.5 45.5t-106.5 14.5q-88 0 -176 -19.5t-148 -42.5l-131 -944h-73zM360 1247q14 76 61.5 119 t106.5 43q45 0 76.5 -20.5t57.5 -45t49.5 -45t53.5 -20.5q41 0 68 28.5t43 79.5l55 -14q-12 -68 -57 -116t-111 -48q-43 0 -71.5 21.5t-54 47t-52.5 46.5q-25 18 -57 18h-6q-35 -2 -63.5 -29.5t-45.5 -81.5z" />
<glyph unicode="&#xf2;" horiz-adv-x="1015" d="M80 258q0 23 2 47l61 451q10 82 52.5 142t101.5 101t130.5 61.5t143.5 20.5t137.5 -20.5t112.5 -61.5t72 -102q16 -41 16 -94q0 -23 -2 -47l-61 -451q-10 -82 -51 -142.5t-101.5 -101.5t-132.5 -61t-143 -20q-72 0 -136.5 20t-112.5 61t-73 103q-16 41 -16 94zM152 264 q0 -41 14 -71q20 -49 60 -80t93.5 -45.5t108.5 -14.5t112.5 14.5t105.5 45t82 79t44 113.5l62 451q2 18 2 37q0 43 -15 75q-20 47 -59 78t-92.5 45.5t-108.5 14.5t-112.5 -14.5t-105.5 -45.5t-83 -78t-43 -112l-61 -451q-4 -23 -4 -41zM417 1425h99l125 -227h-76z" />
<glyph unicode="&#xf3;" horiz-adv-x="1015" d="M80 258q0 23 2 47l61 451q10 82 52.5 142t101.5 101t130.5 61.5t143.5 20.5t137.5 -20.5t112.5 -61.5t72 -102q16 -41 16 -94q0 -23 -2 -47l-61 -451q-10 -82 -51 -142.5t-101.5 -101.5t-132.5 -61t-143 -20q-72 0 -136.5 20t-112.5 61t-73 103q-16 41 -16 94zM152 264 q0 -41 14 -71q20 -49 60 -80t93.5 -45.5t108.5 -14.5t112.5 14.5t105.5 45t82 79t44 113.5l62 451q2 18 2 37q0 43 -15 75q-20 47 -59 78t-92.5 45.5t-108.5 14.5t-112.5 -14.5t-105.5 -45.5t-83 -78t-43 -112l-61 -451q-4 -23 -4 -41zM484 1198l159 227h99l-178 -227h-80z " />
<glyph unicode="&#xf4;" horiz-adv-x="1015" d="M80 258q0 23 2 47l61 451q10 82 52.5 142t101.5 101t130.5 61.5t143.5 20.5t137.5 -20.5t112.5 -61.5t72 -102q16 -41 16 -94q0 -23 -2 -47l-61 -451q-10 -82 -51 -142.5t-101.5 -101.5t-132.5 -61t-143 -20q-72 0 -136.5 20t-112.5 61t-73 103q-16 41 -16 94zM152 264 q0 -41 14 -71q20 -49 60 -80t93.5 -45.5t108.5 -14.5t112.5 14.5t105.5 45t82 79t44 113.5l62 451q2 18 2 37q0 43 -15 75q-20 47 -59 78t-92.5 45.5t-108.5 14.5t-112.5 -14.5t-105.5 -45.5t-83 -78t-43 -112l-61 -451q-4 -23 -4 -41zM309 1198l279 227h76l196 -227h-102 l-137 162l-197 -162h-115z" />
<glyph unicode="&#xf5;" horiz-adv-x="1015" d="M80 258q0 23 2 47l61 451q10 82 52.5 142t101.5 101t130.5 61.5t143.5 20.5t137.5 -20.5t112.5 -61.5t72 -102q16 -41 16 -94q0 -23 -2 -47l-61 -451q-10 -82 -51 -142.5t-101.5 -101.5t-132.5 -61t-143 -20q-72 0 -136.5 20t-112.5 61t-73 103q-16 41 -16 94zM152 264 q0 -41 14 -71q20 -49 60 -80t93.5 -45.5t108.5 -14.5t112.5 14.5t105.5 45t82 79t44 113.5l62 451q2 18 2 37q0 43 -15 75q-20 47 -59 78t-92.5 45.5t-108.5 14.5t-112.5 -14.5t-105.5 -45.5t-83 -78t-43 -112l-61 -451q-4 -23 -4 -41zM330 1247q14 76 61.5 119t106.5 43 q45 0 76.5 -20.5t57.5 -45t49.5 -45t53.5 -20.5q41 0 68 28.5t43 79.5l55 -14q-12 -68 -57 -116t-111 -48q-43 0 -71.5 21.5t-54 47t-52.5 46.5q-25 18 -57 18h-6q-35 -2 -63.5 -29.5t-45.5 -81.5z" />
<glyph unicode="&#xf6;" horiz-adv-x="1015" d="M80 258q0 23 2 47l61 451q10 82 52.5 142t101.5 101t130.5 61.5t143.5 20.5t137.5 -20.5t112.5 -61.5t72 -102q16 -41 16 -94q0 -23 -2 -47l-61 -451q-10 -82 -51 -142.5t-101.5 -101.5t-132.5 -61t-143 -20q-72 0 -136.5 20t-112.5 61t-73 103q-16 41 -16 94zM152 264 q0 -41 14 -71q20 -49 60 -80t93.5 -45.5t108.5 -14.5t112.5 14.5t105.5 45t82 79t44 113.5l62 451q2 18 2 37q0 43 -15 75q-20 47 -59 78t-92.5 45.5t-108.5 14.5t-112.5 -14.5t-105.5 -45.5t-83 -78t-43 -112l-61 -451q-4 -23 -4 -41zM362 1313q4 27 24.5 44t45.5 17 q27 0 42 -17.5t11 -43.5q-4 -25 -23.5 -43.5t-45.5 -18.5q-25 0 -41.5 18.5t-12.5 43.5zM721 1313q4 27 23.5 44t46.5 17q25 0 41 -17.5t12 -43.5q-4 -25 -24.5 -43.5t-45.5 -18.5q-27 0 -42 18.5t-11 43.5z" />
<glyph unicode="&#xf7;" horiz-adv-x="1173" d="M150 641l12 78h874l-12 -78h-874zM477 344v10q4 33 30.5 55.5t59.5 22.5t51 -22q14 -18 15 -43v-13q-4 -33 -29.5 -55.5t-58.5 -22.5t-53 23q-14 18 -15 45zM569 981q4 35 29 54.5t57 21.5q33 0 51.5 -21.5t14.5 -54.5t-28.5 -54.5t-57.5 -21.5t-51.5 21.5t-14.5 54.5z " />
<glyph unicode="&#xf8;" horiz-adv-x="1015" d="M78 258q0 23 4 47l61 451q10 82 52.5 142t101.5 101t131 61.5t143 20.5q84 -4 164 -30l84 153l60 -20l-86 -158q63 -45 96 -113q22 -47 22 -108q0 -23 -4 -49l-61 -451q-10 -82 -51 -142.5t-100.5 -101.5t-131 -61t-143.5 -20q-82 4 -168 32l-90 -155l-53 22l88 158 q-61 45 -95 110q-25 49 -24 111zM154 270q0 -41 14 -75q20 -49 63 -91l465 879q-78 23 -135 23q-55 0 -112.5 -14.5t-105.5 -45.5t-83 -78t-43 -112l-61 -451q-2 -18 -2 -35zM285 78q75 -25 145 -25q55 0 112.5 14.5t104.5 45t81 79t44 113.5l62 451q2 16 2 32q0 41 -17 78 q-23 49 -65 88z" />
<glyph unicode="&#xf9;" d="M100 252q0 25 4 51l107 758h74l-107 -758q-4 -20 -4 -41q0 -39 14 -69q20 -47 58.5 -78t89.5 -45.5t106 -14.5q88 0 177.5 19.5t146.5 42.5l131 944h74l-140 -1004q-98 -33 -198.5 -55t-200.5 -22q-70 2 -133 22.5t-110.5 60t-71.5 101.5q-17 39 -17 88zM442 1425h99 l125 -227h-76z" />
<glyph unicode="&#xfa;" d="M100 252q0 25 4 51l107 758h74l-107 -758q-4 -20 -4 -41q0 -39 14 -69q20 -47 58.5 -78t89.5 -45.5t106 -14.5q88 0 177.5 19.5t146.5 42.5l131 944h74l-140 -1004q-98 -33 -198.5 -55t-200.5 -22q-70 2 -133 22.5t-110.5 60t-71.5 101.5q-17 39 -17 88zM508 1198 l159 227h99l-178 -227h-80z" />
<glyph unicode="&#xfb;" d="M100 252q0 25 4 51l107 758h74l-107 -758q-4 -20 -4 -41q0 -39 14 -69q20 -47 58.5 -78t89.5 -45.5t106 -14.5q88 0 177.5 19.5t146.5 42.5l131 944h74l-140 -1004q-98 -33 -198.5 -55t-200.5 -22q-70 2 -133 22.5t-110.5 60t-71.5 101.5q-17 39 -17 88zM334 1198 l279 227h76l196 -227h-102l-137 162l-197 -162h-115z" />
<glyph unicode="&#xfc;" d="M100 252q0 25 4 51l107 758h74l-107 -758q-4 -20 -4 -41q0 -39 14 -69q20 -47 58.5 -78t89.5 -45.5t106 -14.5q88 0 177.5 19.5t146.5 42.5l131 944h74l-140 -1004q-98 -33 -198.5 -55t-200.5 -22q-70 2 -133 22.5t-110.5 60t-71.5 101.5q-17 39 -17 88zM387 1313 q4 27 24.5 44t45.5 17q27 0 42 -17.5t11 -43.5q-4 -25 -23.5 -43.5t-46.5 -18.5q-25 0 -41 18.5t-12 43.5zM745 1313q4 27 23.5 44t46.5 17q25 0 41 -17.5t12 -43.5q-4 -25 -24.5 -43.5t-44.5 -18.5q-27 0 -42.5 18.5t-11.5 43.5z" />
<glyph unicode="&#xfd;" d="M76 -319l53 45q47 -43 115.5 -65.5t144.5 -22.5q57 0 114.5 14t103.5 43t79 75t43 109l27 176q-88 -41 -166 -58t-150 -17t-137 20t-113.5 60t-70.5 100q-18 43 -19 94q0 23 4 47l105 758h74l-105 -758q-2 -20 -2 -37q0 -41 12 -74q18 -47 55.5 -78.5t89.5 -48t111 -16.5 q49 0 87 5t74 14.5t74 24.5t87 36l129 932h72l-166 -1178q-12 -82 -52 -141t-97.5 -97t-128 -56.5t-140.5 -18.5q-92 0 -174 28.5t-133 84.5zM510 1198l159 227h99l-178 -227h-80z" />
<glyph unicode="&#xfe;" horiz-adv-x="1050" d="M14 -381l258 1829h74l-59 -408q88 23 168.5 32t152.5 9q70 0 135.5 -21.5t112.5 -62.5t70 -102q18 -43 18 -94q0 -23 -4 -47l-61 -449q-10 -80 -52.5 -140.5t-101.5 -102.5t-131 -62t-143 -20q-74 2 -151 14t-150 49l-62 -424h-74zM160 123q74 -35 151.5 -51.5 t153.5 -16.5q57 0 113.5 15.5t103.5 46t80 77t41 107.5l61 453q2 20 2 37q0 41 -12 73q-18 47 -56 78t-90.5 46.5t-109.5 15.5q-76 0 -153.5 -7.5t-168.5 -35.5z" />
<glyph unicode="&#xff;" d="M76 -319l53 45q47 -43 115.5 -65.5t144.5 -22.5q57 0 114.5 14t103.5 43t79 75t43 109l27 176q-88 -41 -166 -58t-150 -17t-137 20t-113.5 60t-70.5 100q-18 43 -19 94q0 23 4 47l105 758h74l-105 -758q-2 -20 -2 -37q0 -41 12 -74q18 -47 55.5 -78.5t89.5 -48t111 -16.5 q49 0 87 5t74 14.5t74 24.5t87 36l129 932h72l-166 -1178q-12 -82 -52 -141t-97.5 -97t-128 -56.5t-140.5 -18.5q-92 0 -174 28.5t-133 84.5zM389 1313q4 27 24.5 44t45.5 17q27 0 42 -17.5t11 -43.5q-4 -25 -23.5 -43.5t-46.5 -18.5q-25 0 -41 18.5t-12 43.5zM748 1313 q4 27 23 44t46 17q25 0 41 -17.5t12 -43.5q-4 -25 -24.5 -43.5t-44.5 -18.5q-27 0 -42.5 18.5t-10.5 43.5z" />
<glyph unicode="&#x152;" horiz-adv-x="1914" d="M100 360q0 29 4 60l89 618q14 104 72.5 184.5t143.5 132.5t187 79.5t205 27.5q66 0 147.5 -20.5t145.5 -67.5l10 76h825l-10 -74h-745l-87 -614h682l-10 -76h-682l-86 -610h746l-11 -76h-825l8 68q-88 -43 -172 -60q-73 -16 -139 -16h-14q-102 2 -195.5 29.5t-161 82 t-102.5 134.5q-25 55 -25 122zM180 373q0 -57 25 -105q31 -66 90 -109.5t141 -65t170 -21.5q78 0 159 19.5t157 55.5l161 1158q-63 35 -139 57q-69 20 -141 20h-12q-88 0 -175.5 -20.5t-160 -62.5t-121.5 -106.5t-62 -154.5l-88 -618q-4 -25 -4 -47z" />
<glyph unicode="&#x153;" horiz-adv-x="1669" d="M80 258q0 23 2 47l61 451q10 82 52.5 142t101.5 101t131 61.5t143 20.5q104 -2 194.5 -46t125.5 -132q61 90 164 134t209 44q70 0 135 -19.5t112.5 -59t71.5 -101.5q16 -41 16 -90q0 -27 -4 -53q-12 -86 -53 -150.5t-101.5 -106.5t-133 -63.5t-146.5 -21.5 q-72 0 -147.5 15t-145.5 50l-28 -207q-2 -59 21.5 -102t62.5 -70.5t90 -41t104 -13.5q86 0 168 33t131 102l58 -30q-59 -84 -161 -128t-204 -44q-106 0 -196.5 44t-127.5 132q-59 -88 -160.5 -131t-207.5 -45q-72 0 -136.5 20t-112.5 61t-73 103q-16 41 -16 94zM152 264 q0 -41 14 -71q20 -49 60 -80t93.5 -45.5t108.5 -14.5t112.5 14.5t105.5 45t82 79t44 113.5l62 451q2 18 2 37q0 43 -15 75q-20 47 -59 78t-92.5 45.5t-108.5 14.5t-112.5 -14.5t-105.5 -45.5t-83 -78t-43 -112l-61 -451q-4 -23 -4 -41zM879 545q59 -27 141 -45.5t160 -18.5 q61 0 118.5 15.5t104.5 49.5t80 86t43 126q2 20 2 39q0 43 -12 77q-18 49 -57.5 81t-92.5 48.5t-111 16.5q-59 0 -114.5 -14.5t-102.5 -45t-80.5 -81t-50.5 -123.5z" />
<glyph unicode="&#x178;" horiz-adv-x="1097" d="M137 1448h92l324 -803l547 803h94l-612 -875l-80 -573h-80l80 573zM453 1681q4 27 24 44.5t45 17.5q27 0 42.5 -17.5t10.5 -44.5q-4 -25 -23.5 -43t-45.5 -18q-25 0 -41 18.5t-12 42.5zM811 1681q4 27 23.5 44.5t46.5 17.5q25 0 41 -17.5t12 -44.5q-4 -25 -24.5 -43 t-45.5 -18q-27 0 -42 18.5t-11 42.5z" />
<glyph unicode="&#x2c6;" horiz-adv-x="618" d="M53 1567l279 227h76l196 -227h-102l-137 162l-197 -162h-115z" />
<glyph unicode="&#x2dc;" horiz-adv-x="555" d="M-2 1616q14 76 61.5 119t106.5 43q45 0 76.5 -20.5t57.5 -45t49.5 -45t53.5 -20.5q41 0 68 28.5t43 79.5l55 -14q-12 -68 -57 -116t-111 -48q-43 0 -71.5 21.5t-54 47t-52.5 46.5q-25 18 -57 18h-6q-35 -2 -63.5 -29.5t-45.5 -81.5z" />
<glyph unicode="&#x2000;" horiz-adv-x="897" />
<glyph unicode="&#x2001;" horiz-adv-x="1794" />
<glyph unicode="&#x2002;" horiz-adv-x="897" />
<glyph unicode="&#x2003;" horiz-adv-x="1794" />
<glyph unicode="&#x2004;" horiz-adv-x="598" />
<glyph unicode="&#x2005;" horiz-adv-x="448" />
<glyph unicode="&#x2006;" horiz-adv-x="299" />
<glyph unicode="&#x2007;" horiz-adv-x="299" />
<glyph unicode="&#x2008;" horiz-adv-x="224" />
<glyph unicode="&#x2009;" horiz-adv-x="358" />
<glyph unicode="&#x200a;" horiz-adv-x="99" />
<glyph unicode="&#x2010;" horiz-adv-x="868" d="M137 575l10 78h580l-10 -78h-580z" />
<glyph unicode="&#x2011;" horiz-adv-x="868" d="M137 575l10 78h580l-10 -78h-580z" />
<glyph unicode="&#x2012;" horiz-adv-x="868" d="M137 575l10 78h580l-10 -78h-580z" />
<glyph unicode="&#x2013;" horiz-adv-x="1198" d="M137 575l10 76h910l-10 -76h-910z" />
<glyph unicode="&#x2014;" horiz-adv-x="2082" d="M137 575l10 76h1795l-11 -76h-1794z" />
<glyph unicode="&#x2018;" horiz-adv-x="438" d="M180 1061q27 55 51.5 102t49 92t48 92.5t50.5 102.5h74l-170 -389h-103z" />
<glyph unicode="&#x2019;" horiz-adv-x="436" d="M186 1073l175 377h98q-27 -55 -51.5 -100.5t-48 -88.5t-48 -88t-51.5 -100h-74z" />
<glyph unicode="&#x201a;" horiz-adv-x="401" d="M-72 -262l164 344h105l-191 -344h-78z" />
<glyph unicode="&#x201c;" horiz-adv-x="694" d="M180 1059l189 391h77l-159 -391h-107zM440 1059l189 391h78l-160 -391h-107z" />
<glyph unicode="&#x201d;" horiz-adv-x="671" d="M184 1061l148 389h102l-176 -389h-74zM438 1061l148 389h102l-176 -389h-74z" />
<glyph unicode="&#x201e;" horiz-adv-x="688" d="M-62 -274l175 377h98q-27 -55 -51.5 -100.5t-48 -88.5t-48 -88t-51.5 -100h-74zM196 -274l175 377h98q-27 -55 -51.5 -100.5t-48 -88.5t-48 -88t-51.5 -100h-74z" />
<glyph unicode="&#x2022;" horiz-adv-x="776" d="M172 694q0 14 2 31q6 45 30.5 86t59.5 71.5t78 49t90 18.5q45 0 84 -18.5t65.5 -49t36.5 -71.5q8 -27 9 -55q0 -14 -2 -31q-6 -47 -30 -88t-58.5 -71.5t-78.5 -48t-89 -17.5q-47 0 -85 17.5t-64.5 48t-39.5 71.5q-8 27 -8 57z" />
<glyph unicode="&#x2026;" horiz-adv-x="1384" d="M72 68q0 10 2 18q8 51 47 85t90 34t80 -33q23 -27 22 -63q0 -10 -2 -23q-6 -51 -45 -85t-90 -34t-80 33q-25 29 -24 68zM500 68q0 10 2 18q8 51 47 85t90 34t80 -33q23 -27 22 -63q0 -10 -2 -23q-6 -51 -45 -85t-90 -34t-80 33q-25 29 -24 68zM926 68q0 10 2 18 q8 51 47 85t90 34t80 -33q23 -27 22 -63q0 -10 -2 -23q-6 -51 -45 -85t-90 -34t-80 33q-25 29 -24 68z" />
<glyph unicode="&#x202f;" horiz-adv-x="358" />
<glyph unicode="&#x2039;" horiz-adv-x="536" d="M86 604l317 389q16 -10 29.5 -20t28.5 -21l-289 -348q43 -84 93 -174t95 -174q-23 -12 -35 -20.5t-32 -18.5z" />
<glyph unicode="&#x203a;" horiz-adv-x="532" d="M68 256l288 348q-43 84 -93 174t-95 174q23 12 35 20.5t33 18.5l206 -387l-317 -389q-16 10 -29.5 20.5t-27.5 20.5z" />
<glyph unicode="&#x205f;" horiz-adv-x="448" />
<glyph unicode="&#x20ac;" horiz-adv-x="1232" d="M82 618l20 66h119l17 121h-125l22 65h113l24 177q14 104 66.5 184t127.5 134t165 81t180 27q133 0 244.5 -57.5t158.5 -176.5l-77 -37q-41 102 -133.5 145.5t-202.5 43.5q-76 0 -152 -22.5t-138 -65.5t-105.5 -108t-55.5 -148l-24 -177h551l-23 -65h-539l-16 -121h551 l-16 -66h-543l-27 -215q-2 -25 -2 -49q0 -55 17 -100q25 -66 73.5 -108t117.5 -63.5t142 -21.5q113 0 220.5 44.5t175.5 144.5l67 -37q-39 -59 -93 -103t-116.5 -73t-130 -43t-135.5 -14q-90 0 -170 26.5t-138.5 79.5t-86.5 131q-23 57 -23 127q0 29 4 59l27 215h-131z" />
<glyph unicode="&#x2122;" horiz-adv-x="1683" d="M168 1391l8 59h598l-8 -59h-266l-99 -699h-65l98 699h-266zM807 692l106 758h93l188 -594q84 141 177 297t179 297h92l-106 -758h-66l107 694l-358 -598h-66l-190 586q-10 -74 -22.5 -162t-24 -178t-23.5 -179t-23 -163h-63z" />
<glyph unicode="&#x25fc;" horiz-adv-x="1064" d="M0 0v1065h1065v-1065h-1065z" />
</font>
</defs>
</svg>
